/* XPM */
static const char * copyfunc_xpm[] = {
"24 24 82 1",
" 	c None",
".	c #000000",
"+	c #797293",
"@	c #625B81",
"#	c #595376",
"$	c #010102",
"%	c #070609",
"&	c #585274",
"*	c #FFFFFF",
"=	c #DFDFDF",
"-	c #919191",
";	c #404040",
">	c #CDCDCD",
",	c #E2E2E2",
"'	c #0C0C0C",
")	c #090909",
"!	c #9A9A9A",
"~	c #999999",
"{	c #272727",
"]	c #979797",
"^	c #CFCFCF",
"/	c #E6E6E6",
"(	c #858585",
"_	c #939393",
":	c #010101",
"<	c #C5C5C5",
"[	c #929292",
"}	c #5B5B5B",
"|	c #959595",
"1	c #ADADAD",
"2	c #202020",
"3	c #D5D5D5",
"4	c #828282",
"5	c #D1DECF",
"6	c #535353",
"7	c #343434",
"8	c #7E7E7E",
"9	c #7DA377",
"0	c #FEFEFE",
"a	c #494949",
"b	c #808080",
"c	c #DDDDDD",
"d	c #868686",
"e	c #E4ECE3",
"f	c #0F0F0F",
"g	c #7D7D7D",
"h	c #9F9F9F",
"i	c #5E5E5E",
"j	c #B3C9AF",
"k	c #D8D8D8",
"l	c #323232",
"m	c #DADADA",
"n	c #E9E9E9",
"o	c #EFEFEF",
"p	c #F1F1F1",
"q	c #8B8B8B",
"r	c #E4E4E4",
"s	c #3E3E3E",
"t	c #C9C9C9",
"u	c #E3E3E3",
"v	c #282828",
"w	c #CBCBCB",
"x	c #9C9C9C",
"y	c #9D9D9D",
"z	c #969696",
"A	c #020202",
"B	c #8F8F8F",
"C	c #E8E8E8",
"D	c #EBEBEB",
"E	c #B1B1B1",
"F	c #D2D2D2",
"G	c #DBDBDB",
"H	c #545454",
"I	c #909090",
"J	c #ECECEC",
"K	c #4A4A4A",
"L	c #D9D9D9",
"M	c #A0A0A0",
"N	c #A1A1A1",
"O	c #EEEEEE",
"P	c #CCCCCC",
"Q	c #333333",
"                        ",
"       ...              ",
"      ....              ",
" ...........            ",
" .+@#$%&@@+.            ",
" .*=-.;>,=*.            ",
" .*'...)!~*.            ",
" .*={.]^/(*.            ",
" .*_:.<[}.|.            ",
" .*1.234.5..  .     ... ",
" .*6.78.599. ..    .... ",
" .0a.bcd.999.e......... ",
" .0f.g,hi.99j9.@@#$%&+. ",
" .k.lmnopq.j99.,r_.st*. ",
"..........e999.!'...)*. ",
"...     ......./uv._w*. ",
"            .*xyzA.4B*. ",
"            .*CDE.2FG*. ",
"            .*yhH.7Iz*. ",
"            .*DJK.bL,*. ",
"            .*MNf.g]x*. ",
"            .*OP.QmrD*. ",
"            ........... ",
"             ...        "};
