/* XPM */
static const char * exec_selected_xpm[] = {
"24 24 182 2",
"  	c None",
". 	c #000000",
"+ 	c #E2E2E2",
"@ 	c #F2F2F2",
"# 	c #CFCECA",
"$ 	c #A6A6A6",
"% 	c #E8E8E8",
"& 	c #F3F3F3",
"* 	c #F7F7F7",
"= 	c #F4F4F4",
"- 	c #DBDBDB",
"; 	c #F0F0F0",
"> 	c #E0E0E0",
", 	c #E1E1E1",
"' 	c #DFDFDF",
") 	c #E1E1E0",
"! 	c #97958F",
"~ 	c #898781",
"{ 	c #8E8C85",
"] 	c #838078",
"^ 	c #858585",
"/ 	c #CDCDCD",
"( 	c #E4E4E4",
"_ 	c #ECECEC",
": 	c #EEEEEE",
"< 	c #EFEFEF",
"[ 	c #EDEDED",
"} 	c #898989",
"| 	c #D9D9D9",
"1 	c #7B7973",
"2 	c #67655F",
"3 	c #403F3B",
"4 	c #686661",
"5 	c #7C7A72",
"6 	c #717171",
"7 	c #8B8B8B",
"8 	c #8E8E8E",
"9 	c #F1F1F1",
"0 	c #E7E7E7",
"a 	c #DDDCDB",
"b 	c #9A9992",
"c 	c #53524E",
"d 	c #171614",
"e 	c #767573",
"f 	c #9B9993",
"g 	c #52504A",
"h 	c #B0B0B0",
"i 	c #D8D8D8",
"j 	c #E3E3E3",
"k 	c #8A8A8A",
"l 	c #A8A8A8",
"m 	c #DDDDDD",
"n 	c #7A7974",
"o 	c #86847D",
"p 	c #9A9996",
"q 	c #B7B6B3",
"r 	c #7D7B75",
"s 	c #646464",
"t 	c #7E7E7E",
"u 	c #8C8C8C",
"v 	c #8F8F8F",
"w 	c #E9E9E9",
"x 	c #EAEAEA",
"y 	c #D7D7D7",
"z 	c #8B8984",
"A 	c #6B6964",
"B 	c #78756C",
"C 	c #5F5D56",
"D 	c #54534D",
"E 	c #656565",
"F 	c #B1B1B1",
"G 	c #EBEBEB",
"H 	c #E5E5E5",
"I 	c #5C5B57",
"J 	c #676662",
"K 	c #93928C",
"L 	c #63625E",
"M 	c #403F3A",
"N 	c #363433",
"O 	c #4B4947",
"P 	c #E6E6E6",
"Q 	c #9C9A94",
"R 	c #9C9B94",
"S 	c #9D9B95",
"T 	c #9B9A94",
"U 	c #908E89",
"V 	c #7C7A75",
"W 	c #565552",
"X 	c #050504",
"Y 	c #050505",
"Z 	c #656560",
"` 	c #030303",
" .	c #E4E3E1",
"..	c #979797",
"+.	c #0A0A0A",
"@.	c #5C5C58",
"#.	c #5D5C59",
"$.	c #9D9C96",
"%.	c #5C5A57",
"&.	c #565452",
"*.	c #504F4C",
"=.	c #474744",
"-.	c #444340",
";.	c #DEDEDE",
">.	c #B3B3B1",
",.	c #484641",
"'.	c #9F9D96",
").	c #080808",
"!.	c #888781",
"~.	c #F5F5F5",
"{.	c #9F9D97",
"].	c #9E9D96",
"^.	c #9A9893",
"/.	c #8F8D88",
"(.	c #070606",
"_.	c #B0AFAD",
":.	c #A8A7A1",
"<.	c #908E86",
"[.	c #97958E",
"}.	c #807D74",
"|.	c #5E5D5A",
"1.	c #5F5D5A",
"2.	c #918F8A",
"3.	c #5F5E5B",
"4.	c #5F5E5A",
"5.	c #5F5F5B",
"6.	c #5D5D59",
"7.	c #454442",
"8.	c #595854",
"9.	c #605E57",
"0.	c #898883",
"a.	c #76746B",
"b.	c #F6F6F6",
"c.	c #010101",
"d.	c #43423F",
"e.	c #282724",
"f.	c #363430",
"g.	c #6D6B63",
"h.	c #909090",
"i.	c #7B7B7B",
"j.	c #666666",
"k.	c #6A6A6A",
"l.	c #E2E2E1",
"m.	c #B6B5AF",
"n.	c #21201E",
"o.	c #0A0908",
"p.	c #181816",
"q.	c #E6E6E4",
"r.	c #65635C",
"s.	c #040404",
"t.	c #161614",
"u.	c #8C8B89",
"v.	c #DFDEDC",
"w.	c #4D4D4D",
"x.	c #515151",
"y.	c #B0AFA9",
"z.	c #D5D4D1",
"A.	c #93918B",
"B.	c #F8F8F8",
"C.	c #D6D5D2",
"D.	c #ABA9A3",
"E.	c #5D5C55",
"F.	c #DCDBDA",
"G.	c #161616",
"H.	c #494943",
"I.	c #7A7975",
"J.	c #888888",
"K.	c #828282",
"L.	c #121212",
"M.	c #42413C",
"N.	c #111111",
"O.	c #7F7F7F",
"P.	c #070707",
"Q.	c #C9C9C9",
"R.	c #AFAFAF",
"S.	c #C3C3C3",
"T.	c #C2C2C2",
"U.	c #C0C0C0",
"V.	c #0E0E0E",
"W.	c #0D0D0D",
"X.	c #A3A3A3",
"Y.	c #3E3E39",
"                                                ",
"  . . . . . . . . . . . . . . . . . . . .       ",
". + @ @ @ @ @ . . . # . . . $ % & * * = - .     ",
". ; > > , + ' . ) ! ~ { ] . ^ / ( _ : < [ .     ",
". @ , } } | . . 1 2 3 4 5 . . 6 ^ 7 8 ; 9 .     ",
". @ + 0 % 0 . a b c d e f g . h i _ ; 9 @ .     ",
". & j k l m . . n o p q r . . s t u v @ & .     ",
". & ( w x w y . z A B C D . E F i G < 9 & .     ",
". & H I J K L . . . M . . . N O . . . ' _ .     ",
". = P Q R S T U V . . . W X Y Z `  .` ..+..     ",
". = 0 @.#.$.#.%.&.*.=.-.` ;.>.` ,.'.,.).!.. .   ",
". ~.% $.$.$.{.{.].^.K /.(._.:.'.'.'.<.[.}.,..   ",
". ~.w |.1.2.1.3.3.4.5.6.7.` '.'.8.9.0.}.a.. .   ",
". ~.x @ & < = @ & = b.c.c.,.'.9.d.e.f.'.g.,.. . ",
". b.G h.i.... . . j.k.c.l.m.'.8.n.o.p.q.}.r.9.. ",
". * [ = . . . # . . . c.s.,.'.0.f.t.u.v.r.,.. . ",
". * : v . ) ! ~ { ] . w.x.s.y.}.m.q.z.A.r.. .   ",
". B.; . . 1 2 3 4 5 . . ).C.D.'.}.}.a.a.E.,..   ",
". B.9 . F.b c d e f g . s.G.8.` ,.a.,.).H.. .   ",
". @ @ . . I.o p q r . . J.).).K.L.M.N.O.P.. .   ",
". Q.[ + . z A B C D . k.R.S.T.U.N.V.W.X.8 .     ",
"  . . . . . . Y.. . . . . . . . . . . . .       ",
"            . . . .                             ",
"                                                "};
