/* XPM */
static const char * open_data_custom_xpm[] = {
"24 24 151 2",
"  	c None",
". 	c #127704",
"+ 	c #000000",
"@ 	c #117104",
"# 	c #010100",
"$ 	c #B5B8A5",
"% 	c #E4E7D2",
"& 	c #DAE1C8",
"* 	c #19680C",
"= 	c #0B0B0B",
"- 	c #E2E5CF",
"; 	c #CFD4AF",
"> 	c #C5CFA6",
", 	c #52963E",
"' 	c #348423",
") 	c #224A17",
"! 	c #23241D",
"~ 	c #9D9F90",
"{ 	c #C6CAA6",
"] 	c #C4C9A5",
"^ 	c #C6CBA7",
"/ 	c #97B57C",
"( 	c #398927",
"_ 	c #555847",
": 	c #1A1B15",
"< 	c #117603",
"[ 	c #606060",
"} 	c #20201A",
"| 	c #D4D6C2",
"1 	c #BEC2A0",
"2 	c #B3B896",
"3 	c #B0B595",
"4 	c #B3B797",
"5 	c #7EA466",
"6 	c #4F913B",
"7 	c #81856C",
"8 	c #3E3F32",
"9 	c #010101",
"0 	c #FFFFFF",
"a 	c #072F01",
"b 	c #EFEFEF",
"c 	c #DADDC8",
"d 	c #AFB494",
"e 	c #AAAF8F",
"f 	c #A3A789",
"g 	c #A6AA8B",
"h 	c #5B9247",
"i 	c #6B9656",
"j 	c #A4A88A",
"k 	c #A1A588",
"l 	c #AAAD96",
"m 	c #B3B5A5",
"n 	c #B8BBAA",
"o 	c #0C0C09",
"p 	c #DDDFCB",
"q 	c #969B7E",
"r 	c #9DA286",
"s 	c #95987C",
"t 	c #96997E",
"u 	c #378126",
"v 	c #618B4D",
"w 	c #9DA184",
"x 	c #A5AA8B",
"y 	c #A4A98A",
"z 	c #A3A889",
"A 	c #A2A588",
"B 	c #C3C3C3",
"C 	c #D8DBC9",
"D 	c #84866E",
"E 	c #7D8169",
"F 	c #151612",
"G 	c #878787",
"H 	c #D7DAC9",
"I 	c #797D67",
"J 	c #3D3F34",
"K 	c #E0E0D9",
"L 	c #EBEDDD",
"M 	c #E8EBD9",
"N 	c #DADCCC",
"O 	c #DADCD1",
"P 	c #2B2C28",
"Q 	c #88B278",
"R 	c #6F735E",
"S 	c #0D0D0D",
"T 	c #F4F4EC",
"U 	c #CED3AE",
"V 	c #BBC09E",
"W 	c #ABB091",
"X 	c #23251E",
"Y 	c #0B4C02",
"Z 	c #599A49",
"` 	c #494B3D",
" .	c #DCDCD4",
"..	c #EAECDD",
"+.	c #CDD2AD",
"@.	c #CCD1AC",
"#.	c #B5B999",
"$.	c #81836C",
"%.	c #070806",
"&.	c #161616",
"*.	c #F2F2EA",
"=.	c #CACFAB",
"-.	c #CACFAA",
";.	c #C9CEAA",
">.	c #C7CCA8",
",.	c #C8CDA9",
"'.	c #C6CBA8",
").	c #C4C9A6",
"!.	c #9DA185",
"~.	c #535445",
"{.	c #749E65",
"].	c #747470",
"^.	c #ECECE2",
"/.	c #C3C8A5",
"(.	c #C2C7A4",
"_.	c #C2C6A4",
":.	c #C0C5A2",
"<.	c #BFC4A1",
"[.	c #BDC2A0",
"}.	c #B9BD9C",
"|.	c #B6B6B6",
"1.	c #A6A998",
"2.	c #B8BC9B",
"3.	c #AFB394",
"4.	c #ACB091",
"5.	c #9E9F91",
"6.	c #E5E6DA",
"7.	c #ADB192",
"8.	c #A9AD8F",
"9.	c #A6AA8C",
"0.	c #A5A98C",
"a.	c #A3A78A",
"b.	c #9FA387",
"c.	c #9FA286",
"d.	c #9B9F83",
"e.	c #999D81",
"f.	c #E3E5D9",
"g.	c #C0C3AF",
"h.	c #94987C",
"i.	c #8F9379",
"j.	c #8B8F75",
"k.	c #8A8E74",
"l.	c #888C73",
"m.	c #858970",
"n.	c #868971",
"o.	c #82866E",
"p.	c #80836C",
"q.	c #7D8069",
"r.	c #71745F",
"s.	c #6A6D59",
"t.	c #575550",
"                                                ",
"                                                ",
"                        . .                     ",
"                      . . . .                   ",
"                  . . . .   . .                 ",
"                  . .       . .                 ",
"    + + + + + + . @           . .               ",
"  # $ % % % % & . *           . .             . ",
"  = - ; ; ; > , ' )           . .           . . ",
"! ~ - { ] ^ / . ( _ :         + + <   + + [ . . ",
"} | 1 2 3 4 5 . 6 7 8 9 + + + 0 + . a + b + .   ",
"! c d e f g h . i j k l m n + 0 + + + + b +     ",
"o p q r s t u . v w x y z A + 0 b b b b B +     ",
"+ C D E F + + + + + + + + + + + 0 b b B + G     ",
"+ H I J K L M M M M M M M M M M + 0 B + N O P   ",
"+ Q R S T ; ; ; ; ; ; ; ; ; U U + 0 b + V W X   ",
"Y Z `  ...+.U U +.U +.+.+.+.+.@.+ 0 B + #.$.%.  ",
". . &.*.=.-.=.-.;.-.;.>.,.,.'.).+ 0 b + !.~.o   ",
"Y {.].^./.(.(._.:._.<.[.:.[.}.+ 0 b B B + |.    ",
"+ 1. .2.2.#.4 4 3 3 3.3.3.4.+ 0 b b b b B +     ",
"+ 5.6.7.8.9.0.a.a.k b.c.d.e.+ 0 + + + + b +     ",
"+ f.g.h.i.j.k.l.l.m.n.o.p.q.+ 0 + r.s.+ b +     ",
"  + + + + + + + + + + + + + + + + + + + + t.    ",
"                                                "};
