/* XPM */
static const char * strip_bg_xpm[] = {
"24 24 32 1",
" 	c None",
".	c #127704",
"+	c #000000",
"@	c #4E4E4E",
"#	c #CCCAC6",
"$	c #E0DED9",
"%	c #D9D8D2",
"&	c #010A00",
"*	c #0B4C02",
"=	c #E4E2DD",
"-	c #D8D6D1",
";	c #C3C2BC",
">	c #D1940C",
",	c #052501",
"'	c #031700",
")	c #C7C4BB",
"!	c #9D9A94",
"~	c #161616",
"{	c #062801",
"]	c #0D0D0C",
"^	c #CAC5BB",
"/	c #D0CCC1",
"(	c #131311",
"_	c #BFBBB1",
":	c #C8C5B9",
"<	c #E5E3DD",
"[	c #54514D",
"}	c #A09D94",
"|	c #C8C4B8",
"1	c #D1CEC3",
"2	c #7D7A72",
"3	c #916708",
"                        ",
"                        ",
"            ..          ",
"           ....         ",
"         .... ..        ",
"         ..   ..        ",
"        ..     ..       ",
"        ..     ..      .",
"       ..      ..     ..",
"       ..       ..   ...",
"  +++  ..       ..  ... ",
" +   +..  +++    .....  ",
" +   +..+@#$%++   ...   ",
"  +++&*+=-;++      >>   ",
"     ,')!++   ++++>>>>  ",
"  ....~++>>>++    >>>>++",
".....{]^/++>       >>   ",
".*++++ (_:<++           ",
".+>  +  +[}|1++         ",
">+>>2+    +++           ",
">3+++                   ",
" >>                     ",
"                        ",
"                        "};
