/* XPM */
static char * addpoint_xpm[] = {
"16 15 4 1",
" 	c None",
".	c #FFFF00",
"+	c #C0C0C0",
"@	c #000000",
"       .        ",
"                ",
"       .    .   ",
"       .        ",
" .     .  .     ",
"  ..   ++.    @@",
"    . +@@+ @@@  ",
"     +@@@@@@    ",
"     @@@@@+     ",
"   @@@+@@+      ",
"@@@    ++ .     ",
"      .    .    ",
"     .      .   ",
"     .          ",
"    .         . "};
