/* XPM */
static char * autoadd_xpm[] = {
"16 15 4 1",
" 	c None",
".	c #0000FF",
"+	c #FFFFFF",
"@	c #00FF00",
"           ...  ",
"           .+.  ",
"         ...+...",
"      @  .+++++.",
"     @@@ ...+...",
"     @ @   .+.  ",
"    @   @  ...  ",
"   @     @      ",
"   @     @      ",
"   @     @      ",
"  @       @     ",
"  @       @     ",
" @         @    ",
"@@         @@   ",
"                "};
