/* XPM */
static char * backv_xpm[] = {
"16 15 4 1",
" 	c None",
".	c #000000",
"+	c #007FFF",
"@	c #FFFF00",
"                ",
"        ..      ",
"       .+.      ",
"      .++.....  ",
"     .+++++++.  ",
"    .++++++++.  ",
"   .+++++++++.  ",
"    .++++++++.  ",
".... .+++++++.  ",
". @   .++.....  ",
". @    .+.      ",
". @@    ..      ",
".@  @ @ .       ",
".    @ @.       ",
".........       "};
