/* XPM */
static char * baseline_t_xpm[] = {
"16 15 5 1",
" 	c None",
".	c #000000",
"+	c #8C8C00",
"@	c #BFBF00",
"#	c #FFFF00",
"                ",
"    ....        ",
"     .  .       ",
"     .  .       ",
"     ...        ",
"     .  .       ",
"     .   .      ",
"     .   .      ",
"    .....       ",
".+@+            ",
" @#@            ",
" +@+. +@+       ",
"     .@#@..  +@+",
"      +@+  ..@#@",
"             +@+"};
