/* XPM */
static char * bg_mode_xpm[] = {
"24 24 4 1",
" 	c None",
".	c #127704",
"+	c #D1940C",
"@	c #000000",
"                        ",
"                        ",
"            ..          ",
"           ....         ",
"         .... ..        ",
"         ..   ..        ",
"        ..     ..       ",
"        ..     ..      .",
"       ..      ..     ..",
"       ..       ..   ...",
"       ..       ..  ... ",
"      ..         .....  ",
"      ..          ...   ",
"      ..           ++   ",
"     ... ++   @@@@++++  ",
"  ..... ++++@@    ++++@@",
"......  ++++       ++   ",
"....   @ ++             ",
".++   @                 ",
"++++@@                  ",
"++++                    ",
" ++                     ",
"                        ",
"                        "};
