/* XPM */
static char * clear_xpm[] = {
"16 15 2 1",
" 	c None",
".	c #FF0000",
"                ",
" ....       ..  ",
".....      .... ",
". ...      ...  ",
"   ...    ...   ",
"    ...  ....   ",
"     .......    ",
"      .....     ",
"      ....      ",
"    .......     ",
"   .........    ",
"  .....  ....   ",
" .....     .... ",
"  . .        .. ",
"               ."};
