/* XPM */
static char * clear_xpm[] = {
"16 15 6 1",
" 	c None",
".	c #E8786C",
"+	c #820202",
"@	c #CD4135",
"#	c #000000",
"$	c #800000",
"                ",
"                ",
"                ",
"                ",
"                ",
"                ",
"      .    .    ",
"      +@  @+    ",
"       +@@+   ##",
"        @@  ### ",
"       @+$@##   ",
"      .+##+@    ",
"     #+#   +    ",
"  ####          ",
" ##             "};
