/* XPM */
static char * clickadd_xpm[] = {
"16 15 5 1",
" 	c None",
".	c #0000FF",
"+	c #FFFFFF",
"@	c #000000",
"#	c #00FF00",
"           ...  ",
"           .+.  ",
"         ...+...",
"       @@.+++++.",
"     ##@@@..+...",
"     ##@+@@.+.  ",
"    #  @++@@..  ",
"   #   @+++@@   ",
"   #   @++++@@  ",
"   #   @+++++@  ",
"  #    @++++@@  ",
"  #    @+@++@   ",
" #     @@ @++@  ",
"##        #@+@  ",
"           @@@  "};
