/* XPM */
static char * convert_xpm[] = {
"24 24 128 2",
"  	c None",
". 	c #000000",
"+ 	c #0A0A0A",
"@ 	c #B3B1B0",
"# 	c #EEECEB",
"$ 	c #F0DCAA",
"% 	c #E5C470",
"& 	c #DFB84F",
"* 	c #8A681F",
"= 	c #100E09",
"- 	c #202020",
"; 	c #EEECE9",
"> 	c #E6D498",
", 	c #EED682",
"' 	c #EED680",
") 	c #E3C15E",
"! 	c #D29815",
"~ 	c #976E15",
"{ 	c #7F5B0A",
"] 	c #1C190F",
"^ 	c #EBE9E5",
"/ 	c #CBB771",
"( 	c #735817",
"_ 	c #C6A546",
": 	c #E3C05D",
"< 	c #BC8710",
"[ 	c #AD7C10",
"} 	c #252C33",
"| 	c #AE9C5C",
"1 	c #010100",
"2 	c #9C7E2B",
"3 	c #AB7C12",
"4 	c #242012",
"5 	c #38414C",
"6 	c #A5BDD1",
"7 	c #2B333B",
"8 	c #3D351F",
"9 	c #A37819",
"0 	c #231F13",
"a 	c #3E4954",
"b 	c #556573",
"c 	c #B5CFE5",
"d 	c #3F566C",
"e 	c #0B0B06",
"f 	c #A97C1A",
"g 	c #3F4A56",
"h 	c #9DB8D2",
"i 	c #4B6983",
"j 	c #415B71",
"k 	c #2B343C",
"l 	c #221E11",
"m 	c #EAE8E3",
"n 	c #C58F13",
"o 	c #B68411",
"p 	c #826321",
"q 	c #302C19",
"r 	c #3E4955",
"s 	c #5A6A79",
"t 	c #363220",
"u 	c #916F25",
"v 	c #322F1E",
"w 	c #2C333C",
"x 	c #2B2719",
"y 	c #353120",
"z 	c #687A8B",
"A 	c #394E62",
"B 	c #937025",
"C 	c #111418",
"D 	c #364A5D",
"E 	c #181C21",
"F 	c #2F2C19",
"G 	c #1E2B36",
"H 	c #202F3B",
"I 	c #080704",
"J 	c #263644",
"K 	c #060503",
"L 	c #3B1C15",
"M 	c #CD5446",
"N 	c #CF5749",
"O 	c #C74B3F",
"P 	c #C03F35",
"Q 	c #030301",
"R 	c #D46051",
"S 	c #DD7C6F",
"T 	c #C4463A",
"U 	c #992C25",
"V 	c #C5483C",
"W 	c #DF8477",
"X 	c #EDC5BE",
"Y 	c #DC7B6D",
"Z 	c #C24D45",
"` 	c #6B1813",
" .	c #D86E61",
"..	c #DF8275",
"+.	c #CB6A63",
"@.	c #6E1813",
"#.	c #CB6A64",
"$.	c #821A16",
"%.	c #BA352D",
"&.	c #C25550",
"*.	c #6B110E",
"=.	c #98231D",
"-.	c #A62D26",
";.	c #C14B43",
">.	c #BC3930",
",.	c #BB372E",
"'.	c #B8322A",
").	c #C35C57",
"!.	c #B53732",
"~.	c #470705",
"{.	c #090805",
"].	c #181818",
"^.	c #941E19",
"/.	c #AA3F3A",
"(.	c #C7645F",
"_.	c #C6635E",
":.	c #C05350",
"<.	c #B33430",
"[.	c #520907",
"}.	c #37160F",
"|.	c #0E0E0E",
"1.	c #7F120E",
"2.	c #961712",
"3.	c #8F1611",
"4.	c #6F0E0B",
"5.	c #490504",
"6.	c #35170F",
"7.	c #030201",
"                        . . . . .               ",
"                    + @ # $ % & * . =           ",
"                  - ; > , ' ' ) ! ~ { ]         ",
"                . ^ / . . . ( _ : < [ ]         ",
"          }     . | 1         2 ' ! 3 4         ",
"        5 6 7     .           8 ' ! 9 0         ",
"      a b c d 7         e . . . ' ! f . . .     ",
"      g h c i j k       l m ' ' ' ! n o p q     ",
"    r s h c i i j }       t m ' ' ! ! u v       ",
"    g h h c i i i d w       x m ' ! u y         ",
"  r z h h c i i i i A 7       q m B v           ",
"  C h h h c i i i i i D E       q F             ",
"    . h h c i i i i G .                         ",
"      . h c i i H . I         . . . . 1         ",
"        . c J . K         L . M N M O P .       ",
"          . Q             . M R S R M T U .     ",
"                        . V N W X Y N V Z `     ",
"                        . T M  ...R M T +.@.Q   ",
"                        . P O M N M O P #.$..   ",
"                        . %.P T V T P %.&.*.1   ",
"                        . =.-.;.>.,.'.).!.~.{.  ",
"                          ].^./.(._.:.<.[..     ",
"                          }.|.1.2.3.4.5.. 6.    ",
"                              7.. . . 7.        "};
