/* XPM */
static char * delpeak_xpm[] = {
"16 15 3 1",
" 	c None",
".	c #FF0000",
"+	c #FFFF00",
"     ......     ",
"   ...    ...   ",
"  ..        ..  ",
"  ..       ...  ",
" ..    +  .. .. ",
" ..   ++...   . ",
"..    +..     ..",
"..   +.. +    ..",
" .  +..   +   . ",
" .. ..    +  .. ",
"  ..+     + ..  ",
"  ..       +..  ",
"   ...    ...   ",
"  +  ...... +   ",
" ++    ..   ++  "};
