/* XPM */
static char * dpane_xpm[] = {
"16 15 14 1",
" 	c None",
".	c #000000",
"+	c #050A0C",
"@	c #172F38",
"#	c #274E5D",
"$	c #081013",
"%	c #3A768B",
"&	c #61C4E8",
"*	c #13272E",
"=	c #060C0E",
"-	c #0A1417",
";	c #020405",
">	c #11232A",
",	c #1D3B46",
"...............+",
"...........@##$.",
"..       ..%&&*.",
"..       ..=--;.",
"..       ..>,,=.",
"..       ..%&&*.",
"..       ..=--;.",
"..       ..>,,=.",
"..       ..%&&*.",
"..       ..=--;.",
"..       .......",
"..       ..   ..",
"..       ..   ..",
"..       ...  ..",
"................"};
