/* XPM */
static char * dump_xpm[] = {
"16 15 16 1",
" 	c None",
".	c #044805",
"+	c #028402",
"@	c #026602",
"#	c #021B02",
"$	c #1D2F25",
"%	c #686D6D",
"&	c #424546",
"*	c #778588",
"=	c #A4B8BC",
"-	c #475B5F",
";	c #CFDDE1",
">	c #F6F8F9",
",	c #86A0A5",
"'	c #596C66",
")	c #C8D2D3",
" .. .. +. .. .@ ",
" @+#+. .##+@#+# ",
" @@$.  $@#@@ .  ",
"        %&&*    ",
"      *$*=-%    ",
" #  %-%;;>,$    ",
" +*$%=;>>>;--@@ ",
" .&=>>>>>>>=$*@ ",
" @&*>>>>>>;,-'. ",
"  *&)>>>),***$  ",
"   $,;;=*=,*'-- ",
" $@ $,,=);;**&$ ",
" +. -*,)%)),$&* ",
" @  *&,,),'&... ",
"     *#$&-%     "};
