/* XPM */
static char * execute_xpm[] = {
"16 15 16 1",
" 	c None",
".	c #020202",
"+	c #9C947E",
"@	c #064A06",
"#	c #6A6655",
"$	c #FBFBF3",
"%	c #028602",
"&	c #57544E",
"*	c #DEDACE",
"=	c #2F2D27",
"-	c #026602",
";	c #C6C6C2",
">	c #091D0A",
",	c #4E4A3E",
"'	c #BAB6A6",
")	c #8A826E",
"@@ @@%@ @@ @-   ",
"-%>%@@>>%->%>   ",
"--=@ =->-- @    ",
"       ==#+     ",
" @=#.,#)**;&#> @",
">>=)+'$$'&,++=>%",
"=->#'$;&#)+++= @",
"   .+$=+)++)+=  ",
" @@ &*=++++++=- ",
">%->=)=+)+)&.%> ",
">-- @&=+++=- @  ",
"     .=#,.      ",
" @ @@ >>@@ @@% @",
" >>%->%>-%>%@@>%",
" ->-- @ --=@ = @"};
