/* XPM */
static char * fitcont_xpm[] = {
"16 15 16 1",
" 	c None",
".	c #211F17",
"+	c #6C6A64",
"@	c #B2AA7E",
"#	c #413F37",
"$	c #9C946F",
"%	c #4C4A40",
"&	c #7C7758",
"*	c #BAB185",
"=	c #5A5954",
"-	c #C5BC8C",
";	c #938C68",
">	c #817F77",
",	c #D0C693",
"'	c #68644C",
")	c #A9A177",
"                ",
"                ",
"   >..#         ",
"  >=));%        ",
"  +.@$>. >+     ",
"  +.)@;.>=+%>>  ",
"   =#'#;#;*'''> ",
"    >&=$-,,,-'> ",
"     >',,,-,,+% ",
"     #*-,@$-,-&+",
"     =&@,,),,$'>",
"      %&,,,,-#> ",
"      %)>@-$;>= ",
"       %%&*#==  ",
"         =#&    "};
