/* XPM */
static char * fitrun_xpm[] = {
"16 15 16 1",
" 	c None",
".	c #201E16",
"+	c #47453B",
"@	c #B2AA7E",
"#	c #2A261E",
"$	c #FE7E7E",
"%	c #68644C",
"&	c #363636",
"*	c #FE0202",
"=	c #A39B73",
"-	c #6C6A64",
";	c #807D72",
">	c #BAB185",
",	c #5B5A57",
"'	c #CDC391",
")	c #938C68",
"                ",
"                ",
"   ;##+         ",
"  ;,==)+        ",
"$ -.@)). ;-     ",
"*$-#@>;.;,-+;;  ",
"**$,+,+)+)>-%%; ",
"***$;;,)'''''%; ",
"****$;%''''''-+ ",
"***$ &>''==''';-",
"**$  ,;@''='')%;",
"*$    +;'''''+; ",
"$     +@;>'));, ",
"       ++;@+,,  ",
"         ,&;    "};
