/* XPM */
static char * fitundo_xpm[] = {
"16 15 16 1",
" 	c None",
".	c #020202",
"+	c #27261C",
"@	c #9A6A06",
"#	c #D1C691",
"$	c #BA820A",
"%	c #D2960E",
"&	c #ADA375",
"*	c #45433B",
"=	c #8B6305",
"-	c #605E52",
";	c #D4B152",
">	c #847D62",
",	c #EED98E",
"'	c #C6BE8D",
")	c #958F6B",
"        ..      ",
"       .,.      ",
">++*  .,,....   ",
"-)&)*.,,,,,;).  ",
"+&)).,,,,,,,,&. ",
"+&&).=%%%%%%;,).",
"-*-*).=%%..@%;;.",
" >>-)'.@%.-.$%,.",
"  >-###.=.-*.%,.",
"  *''#&&..#>.;>.",
"  ->&'#&##)-.#. ",
"   *>#'##'*.;>. ",
"   *&>&')).&).  ",
"    **>'+--..   ",
"      -+>       "};
