/* XPM */
static char * fityk_xpm[] = {
"32 32 6 1",
" 	c None",
".	c #FF0000",
"+	c #FFFFFF",
"@	c #00FF00",
"#	c #FFFF00",
"$	c #0000FF",
"          .....                 ",
"          .....                 ",
"          .....                 ",
"           ...       ...        ",
"                    .....       ",
"     ...++++++++@@+ .....       ",
"   +.....     @@@@@@.....       ",
"   +.....    @@@  @@@...        ",
"   +.....   @@@    @@@          ",
"   ++...    @@      @@  +       ",
"   ++++    @@@ ++++++@@++       ",
"   ++++    @@  +++++++@@+       ",
"   +++++   @@   +++++++@+       ",
"   +++++   @@   +++++++@@   ... ",
"   ++++++ ####         @@  .....",
" ...++++########       @@  .....",
".....++###@@  ###       @@ .....",
".....+###+@@   ###      @@  ... ",
".....+##++@@    ##  +++++@@++++ ",
" ... ###+@@@     ## +++++@@++++ ",
"     ##++@@++    ###++++++@@+++ ",
"    ##  @@+++     ## +++++@@+++ ",
"    ##  @@++++     ## +++++@@+  ",
"   ##  @@@+++++    ##      @@   ",
"   ##  @@  ++++    ###     @@@  ",
"  ### @@     +++    ###+    @@@ ",
"  ##@@@@      ++     ####     @@",
"###@@@         ++++++########## ",
"$$$$$$$$$$$$$$$$$$$$$$$$$#######",
"$$$$$$$$$$$$$$$$$$$$$$$$$$$$$$$$",
"$$$$$$$$$$$$$$$$$$$$$$$$$$$$$$$$",
"                                "};

