/* XPM */
static char * fityk_xpm[] = {
"32 32 4 1",
" 	c None",
".	c #EA823C",
"+	c #FD9D2B",
"@	c #FDC70B",
"                                ",
"                          ...   ",
"                         .....  ",
"                    +++  .....  ",
"                   +++++ .....  ",
"                   +++++  ...   ",
"                   +++++        ",
"                @@@ +++         ",
"               @@@@@            ",
"               @@@@@            ",
"               @@@@@            ",
"                @@@             ",
"                                ",
"         @@@   @@               ",
"        @@@@@ @@@@  @@@         ",
"        @@@@@@@@@@@@@@@@        ",
"        @@@@@@@@@@@@@@@@        ",
"         @@@  @@@@ @@@@@        ",
"               @@   @@@         ",
"                                ",
"             @@@                ",
"            @@@@@               ",
"            @@@@@               ",
"            @@@@@               ",
"         @@@ @@@                ",
"        @@@@@                   ",
"  @@@   @@@@@                   ",
" @@@@@  @@@@@                   ",
" @@@@@   @@@                    ",
" @@@@@                          ",
"  @@@                           ",
"                                "};
