/* XPM */
static char * freeze_xpm[] = {
"16 15 3 1",
" 	c None",
".	c #FFFFFF",
"+	c #0000FF",
"  .......  ...  ",
"  ..+++.+++++.  ",
"  .++.+.+++++   ",
"   ++        +  ",
"   ++.   .      ",
"   ++....+.     ",
"   +++++++      ",
"   +++++++      ",
"   ++....+      ",
"   ++ . .+      ",
"   ++    .      ",
"   ++           ",
" ..++...   ...  ",
"....++......... ",
"................"};
