/* XPM */
static char * gparam_xpm[] = {
"16 15 3 1",
" 	c None",
".	c #FFFFFF",
"+	c #000000",
"                ",
"       .        ",
"    ++....    + ",
"     . . +   +  ",
"+++ +. .    + + ",
"      ... +  ++ ",
" +  ++ . .    + ",
"  +    .  .     ",
"  ++   . . ++++ ",
" +  +....+    + ",
" +  +  .+  + +  ",
" +  +    +  +  +",
"  ++ + ++  +  ++",
"             +  ",
"                "};
