/* XPM */
static char * hwhm_xpm[] = {
"16 15 4 1",
" 	c None",
".	c #FFFFFF",
"+	c #000000",
"@	c #FF0000",
"     .         .",
"     ..       ..",
"  ......+...+...",
"     .. +   + ..",
"     .  @      .",
"       @@@  +   ",
".. .   @ @  +   ",
".. .  @   @ +   ",
".... @     @+   ",
".. . @+++++@    ",
".. . @.   .@    ",
"    @ .   . @   ",
"    @ . . . @   ",
"   @  .. ..  @  ",
"  @@  .   .  @@ "};
