/* XPM */
static char * leftscroll_xpm[] = {
"16 15 7 1",
" 	c None",
".	c #000000",
"+	c #8AD88A",
"@	c #FFFF00",
"#	c #5CE85C",
"$	c #00FF00",
"%	c #001700",
"                ",
"                ",
"                ",
"                ",
"    .........   ",
"  + . @     .   ",
" #$+++@     %   ",
"$$$$$$$@    .   ",
" #$+++  @ @ .   ",
"  + .    @ @.   ",
"    .........   ",
"                ",
"                ",
"                ",
"                "};
