/* XPM */
static char * log_xpm[] = {
"16 15 16 1",
" 	c None",
".	c #313433",
"+	c #6D8A8F",
"@	c #9DB5B9",
"#	c #51514B",
"$	c #CED2D2",
"%	c #5E605D",
"&	c #FCFDFD",
"*	c #6A6A6A",
"=	c #E2E4E4",
"-	c #B1B2AF",
";	c #9A8D62",
">	c #C2C3BF",
",	c #8B9799",
"'	c #797B7A",
")	c #43453F",
"          '%)'  ",
"         .*-=.  ",
"     ,*)#====;*%",
"     #,==>$=->#;",
"    '#>==->-$';#",
"  *#**;$$->=';#*",
"'.'@=&.=$$=';#-$",
".@=&&&''==>).;>-",
"%+&&&&&#>$%%-->'",
"')>&&&$*;$>$=$'*",
" .,=$@+-.===-.' ",
"  .,,>$=''=)%   ",
"  %++$*$$'.#'   ",
"  +)+@$,*)      ",
"   '...%'       "};
