/* XPM */
static char * manual_xpm[] = {
"16 15 16 1",
" 	c None",
".	c #020202",
"+	c #2E2A22",
"@	c #458E8E",
"#	c #D2BD96",
"$	c #328282",
"%	c #CBC7BE",
"&	c #3A3226",
"*	c #EDDCC1",
"=	c #4A4236",
"-	c #569898",
";	c #FAF6EF",
">	c #368686",
",	c #0D6866",
"'	c #94978F",
")	c #7F7661",
"...+%    ==..'  ",
".-);+% &&;;;)'  ",
".-);;+&#*;;;)'  ",
".-);;;)#*;;;)...",
".-);;;)#*;;;)*,.",
".@);;;)#*;;;);,.",
".@);;;)%*;;;'*,.",
".$);;*'#*;;;);,.",
".$)**;)#*;;;';,.",
".$)***'%*;#)'*,.",
" .$)%*)##)'#%;,.",
" %.>)#)#)%*%;*,.",
"  %.>)))$$$$>>,.",
"   %.>=$........",
"    %...''''''''"};
