/* XPM */
static char * manual_xpm[] = {
"24 24 225 2",
"  	c None",
". 	c #000000",
"+ 	c #11161D",
"@ 	c #97A8BE",
"# 	c #7D93AC",
"$ 	c #738AA3",
"% 	c #6C849C",
"& 	c #647C96",
"* 	c #5E768F",
"= 	c #576F88",
"- 	c #506982",
"; 	c #566E86",
"> 	c #495869",
", 	c #111822",
"' 	c #768BA2",
") 	c #8EA2B8",
"! 	c #768DA7",
"~ 	c #567290",
"{ 	c #4E6A88",
"] 	c #466280",
"^ 	c #3D5A78",
"/ 	c #355270",
"( 	c #314E6B",
"_ 	c #36526F",
": 	c #3C5773",
"< 	c #33404F",
"[ 	c #151C25",
"} 	c #0A0D11",
"| 	c #99ACC0",
"1 	c #8096AE",
"2 	c #5B7694",
"3 	c #536F8D",
"4 	c #4A6785",
"5 	c #425F7D",
"6 	c #3A5775",
"7 	c #324F6D",
"8 	c #3B5772",
"9 	c #2D445C",
"0 	c #232F36",
"a 	c #5B6979",
"b 	c #758DA6",
"c 	c #577391",
"d 	c #4F6B88",
"e 	c #476381",
"f 	c #3F5B79",
"g 	c #365371",
"h 	c #34506D",
"i 	c #293F56",
"j 	c #353C41",
"k 	c #8097B0",
"l 	c #5C7896",
"m 	c #54708E",
"n 	c #4B6886",
"o 	c #43607E",
"p 	c #3B5876",
"q 	c #33506E",
"r 	c #33506B",
"s 	c #395571",
"t 	c #17222C",
"u 	c #7E8285",
"v 	c #353738",
"w 	c #8FA3B9",
"x 	c #587492",
"y 	c #506C8A",
"z 	c #486482",
"A 	c #405C7A",
"B 	c #385472",
"C 	c #324F6C",
"D 	c #3D5974",
"E 	c #21272E",
"F 	c #4A4C4D",
"G 	c #8E9092",
"H 	c #98ABBF",
"I 	c #7F96AF",
"J 	c #5D7997",
"K 	c #55718F",
"L 	c #4D6987",
"M 	c #44617F",
"N 	c #3C5977",
"O 	c #34516F",
"P 	c #385470",
"Q 	c #2F465D",
"R 	c #18242D",
"S 	c #545759",
"T 	c #65696A",
"U 	c #333334",
"V 	c #657583",
"W 	c #8DA2B9",
"X 	c #5A7593",
"Y 	c #516D8B",
"Z 	c #496583",
"` 	c #415D7B",
" .	c #395573",
"..	c #2A425A",
"+.	c #232B32",
"@.	c #46484A",
"#.	c #909295",
"$.	c #9BACBB",
"%.	c #879CB4",
"&.	c #637E9B",
"*.	c #35526E",
"=.	c #344B62",
"-.	c #19242D",
";.	c #64686B",
">.	c #6D6F70",
",.	c #30475D",
"'.	c #65707D",
").	c #91A5BC",
"!.	c #718BA6",
"~.	c #262E33",
"{.	c #575859",
"].	c #8B8F95",
"^.	c #090D11",
"/.	c #7E8E9F",
"(.	c #8A9FB6",
"_.	c #6C85A1",
":.	c #354C63",
"<.	c #1A2530",
"[.	c #484C4E",
"}.	c #737576",
"|.	c #435B73",
"1.	c #757777",
"2.	c #BDC6D3",
"3.	c #AEBECC",
"4.	c #A7B6C6",
"5.	c #A3B2C2",
"6.	c #9EADBD",
"7.	c #9AAAB9",
"8.	c #90A0B0",
"9.	c #7B8FA1",
"0.	c #798C9F",
"a.	c #708499",
"b.	c #556679",
"c.	c #32353B",
"d.	c #5B5E61",
"e.	c #8E9398",
"f.	c #0A0E11",
"g.	c #020709",
"h.	c #B0BAC4",
"i.	c #2C3E51",
"j.	c #24364A",
"k.	c #2B353F",
"l.	c #5E6268",
"m.	c #77787A",
"n.	c #46607A",
"o.	c #0D0F11",
"p.	c #87939D",
"q.	c #404145",
"r.	c #5F6060",
"s.	c #747474",
"t.	c #969696",
"u.	c #B1B1B1",
"v.	c #AFAFB0",
"w.	c #C5C5C6",
"x.	c #CECECF",
"y.	c #B4BBC1",
"z.	c #BCC2C9",
"A.	c #BDC4CA",
"B.	c #C4CBD2",
"C.	c #CBD2D9",
"D.	c #D6DADE",
"E.	c #90969B",
"F.	c #858A8F",
"G.	c #141B21",
"H.	c #0C0E0F",
"I.	c #6B7B8B",
"J.	c #575757",
"K.	c #7D7E80",
"L.	c #E2E4E6",
"M.	c #E1E1E1",
"N.	c #DFDFE0",
"O.	c #F2F2F2",
"P.	c #FDFDFE",
"Q.	c #F1F3F5",
"R.	c #A7A8AA",
"S.	c #B2B5B9",
"T.	c #696D71",
"U.	c #000102",
"V.	c #242527",
"W.	c #637281",
"X.	c #697C8E",
"Y.	c #546B83",
"Z.	c #455D78",
"`.	c #D6DCE1",
" +	c #E7EAED",
".+	c #EDEFF1",
"++	c #EDEFF2",
"@+	c #E5E6E7",
"#+	c #DEDEDF",
"$+	c #E1E1E2",
"%+	c #E1E2E3",
"&+	c #727A83",
"*+	c #8B8F94",
"=+	c #151B21",
"-+	c #04060A",
";+	c #384A5D",
">+	c #4D6278",
",+	c #54687F",
"'+	c #536A82",
")+	c #576F86",
"!+	c #8797A7",
"~+	c #D7DDE1",
"{+	c #E2E6E9",
"]+	c #E9ECEE",
"^+	c #F8F9FA",
"/+	c #81858A",
"(+	c #A5A7A8",
"_+	c #9CA2A8",
":+	c #010203",
"<+	c #3B4B5E",
"[+	c #445669",
"}+	c #54677D",
"|+	c #556B80",
"1+	c #566C83",
"2+	c #ACB8C3",
"3+	c #DCE1E5",
"4+	c #E8EBED",
"5+	c #9FA3A6",
"6+	c #151D24",
"7+	c #303E4D",
"8+	c #3D4E60",
"9+	c #4F5F73",
"0+	c #53657B",
"a+	c #4C637C",
"b+	c #010305",
"                                                ",
"              . . . . . . . . . . . . . .       ",
"            + @ # $ % & * = - - - - - ; > ,     ",
"          . ' ) ! ~ { ] ^ / ( ( _ _ : _ < [     ",
"          } | 1 2 3 4 5 6 7 ( ( ( ( 8 9 0       ",
"        . a | b c d e f g ( ( ( ( h 8 i j .     ",
"        . | k l m n o p q ( ( r ( s 9 t u v     ",
"      . a w b x y z A B ( ( ( ( C D i E F G     ",
"      . H I J K L M N O ( ( ( ( P Q R S T U     ",
"    . V W ! X Y Z `  .( ( ( ( ( : ..+.@.#..     ",
"    . $.%.&.~ { ] ^ / ( ( ( ( *.=.-.;.>.,..     ",
"  . '.).!.l m n o p q ( ( ( ( D i ~.{.].^..     ",
"  . /.(._.x y z A B ( ( ( ( ( :.<.[.}.|..       ",
". 1.2.3.4.5.6.7.8.9.0.0.0.0.a.b.c.d.e.f..       ",
"g.h.i.j.j.j.j.j.j.j.j.j.j.j.j.k.l.m.n..         ",
"o.p.q.r.s.t.u.v.w.x.y.z.A.B.C.D.E.F.G..         ",
"H.I.J.K.L.L.M.N.N.O.P.Q.Q.Q.R.S.T.n.U.          ",
"V.W.X.Y.Z.`. +.+++@+#+$+$+N.%+&+*+=+.           ",
"  . -+;+>+,+'+)+!+~+{+]+^+^+/+(+_+:+            ",
"      . . . . <+[+}+|+1+2+3+4+5+6+.             ",
"              . . . . 7+8+9+0+a+b+              ",
"                      . . . . .                 ",
"                                                ",
"                                                "};
