/* XPM */
static char * openfile_xpm[] = {
"16 15 16 1",
" 	c None",
".	c #12120E",
"+	c #FEFE02",
"@	c #8A826E",
"#	c #46423E",
"$	c #FEFEF6",
"%	c #DEDACE",
"&	c #6D6C67",
"*	c #C0BEB4",
"=	c #F2F2EA",
"-	c #57544D",
";	c #AAA697",
">	c #32322D",
",	c #7E7E7E",
"'	c #9A927B",
")	c #626054",
"                ",
"                ",
"    ++      +   ",
"   +  +    + +  ",
"+++    +++-- +++",
"   '& ,&#>,' && ",
"   #)>-)@%%*-)> ",
"   #@'*$$;--''> ",
"   &)*=*-)@''@> ",
"    >;=>''''''> ",
"    ,-%>''''''> ",
"     #@>'@',)>, ",
"     &)>'''#&   ",
"      >>&->     ",
"      ,.-,      "};
