/* XPM */
static char * plusbg_xpm[] = {
"16 15 4 1",
" 	c None",
".	c #000000",
"+	c #FF0000",
"@	c #00FF00",
"                ",
"                ",
"                ",
"                ",
"         @@     ",
"        @  @@@  ",
"              @ ",
"       @       @",
"       @ +   ...",
"       @+++...  ",
"      @+ ..+    ",
"    @@ +.. +    ",
"    ...+   +    ",
"  ... +     +   ",
" .. ++       ++ "};
