/* XPM */
static char * pparam_xpm[] = {
"16 15 3 1",
" 	c None",
".	c #000000",
"+	c #00FF00",
" .+++.   .++.   ",
".+++++. .++++.  ",
"++...+..++..++. ",
"++. ..  ++. ++. ",
"++.     ++  ++. ",
".+...+ .++..++. ",
" .+++.  .++++ . ",
"  . .    .++    ",
"++..+  ++. .... ",
"+++ + +..+.+++++",
"+++++ +..+.+++++",
"++.++ .+.. ..+..",
"++..+...+. . +. ",
"++. +.+..+   +. ",
"     .+++.   +.+"};
