/* XPM */
static char * range_t_xpm[] = {
"16 15 4 1",
" 	c None",
".	c #000000",
"+	c #FFFF00",
"@	c #7F7F00",
"   .      .     ",
"   .      .     ",
"   .      .     ",
"                ",
"   .      .     ",
"   .      .     ",
"   .      .     ",
"      +         ",
"   .   +  .     ",
"   . +    .     ",
"   . +  + .     ",
"                ",
"  @.+    +. @  @",
"@@ .      .@ @@ ",
"   .      .     "};
