/* XPM */
static char * reset_xpm[] = {
"16 15 16 1",
" 	c None",
".	c #101010",
"+	c #376130",
"@	c #50A848",
"#	c #575757",
"$	c #5E5E5E",
"%	c #222222",
"&	c #9DA99B",
"*	c #898C89",
"=	c #34852B",
"-	c #2A2A2A",
";	c #82C67D",
">	c #D6D6D6",
",	c #1A3A0A",
"'	c #627B63",
")	c #40453F",
"                ",
"      ''''      ",
"     @@=+),+    ",
"    ';=+   )+   ",
"    ';=*   >&   ",
"  +++@=+,&      ",
"   @;==='*'*    ",
"    =;='*$')*   ",
"     +**-'))%*  ",
"       *##))#$  ",
"   )    &)#-    ",
"   &.-  )*))    ",
"    &#.%)-)     ",
"      ****&     ",
"                "};
