/* XPM */
static char * rightscroll_xpm[] = {
"16 15 6 1",
" 	c None",
".	c #000000",
"+	c #FFFF00",
"@	c #8AD88A",
"#	c #00FF00",
"$	c #5CE85C",
"                ",
"                ",
"                ",
"                ",
"    .........   ",
"    . +     .@  ",
"    . +   @@@#$ ",
"    . ++ #######",
"    .+  + @@@#$ ",
"    .    + +.@  ",
"    .........   ",
"                ",
"                ",
"                ",
"                "};
