/* XPM */
static char * shiftup_xpm[] = {
"10 24 4 1",
" 	c None",
".	c #2E2E2E",
"+	c #00FF00",
"@	c #169616",
"    ..    ",
"    ..    ",
"    ..    ",
"    ..    ",
"++++++++++",
"++++@@++++",
"    ..    ",
"   ....   ",
"  ......  ",
" ........ ",
"    ..    ",
"    ..    ",
"    ..    ",
"    ..    ",
"    ..    ",
"    ..    ",
"    ..    ",
"++++++++++",
"++++@@++++",
"    ..    ",
"   ....   ",
"  ......  ",
" ........ ",
"    ..    "};
