/* XPM */
static char * spline_xpm[] = {
"16 15 4 1",
" 	c None",
".	c #000000",
"+	c #00FF00",
"@	c #FF0000",
"      @@        ",
"     ++@        ",
"    +@@@@       ",
"   + .@@++      ",
"   + .  . +     ",
"  + .   .. +    ",
"  +..    .. +   ",
"  +.      ..+  .",
" +..       .+ . ",
" +.        @.+  ",
"+.         @.++ ",
"+.@         @   ",
"@@@             ",
"@@              ",
"                "};
