/* XPM */
static char * tree_xpm[] = {
"16 15 6 1",
" 	c None",
".	c #000000",
"+	c #FFFFFF",
"@	c #7F7F7F",
"#	c #00FF00",
"$	c #0000FF",
"   ..           ",
"   ..   +  +.   ",
"   .... .@   +  ",
"   ..  # @+.@@. ",
"   ..  ### @    ",
"   ..  #  $  .+ ",
"   ..  #  $$$@  ",
"   ..  #    +.  ",
"   ..  #      + ",
"   ..  ###. .   ",
"   ..      @+   ",
"   ..   +       ",
"   ....   @     ",
"   ..  #  . @   ",
"   ..  ### +.   "};
