/* XPM */
static char * vertic_xpm[] = {
"16 15 6 1",
" 	c None",
".	c #00FF00",
"+	c #000000",
"@	c #FFFF00",
"#	c #001700",
"$	c #00F500",
"        .       ",
"       ...      ",
"        .       ",
"        .       ",
"    +++++++++   ",
"    + @     +   ",
"    + @     #   ",
"    + @@    +   ",
"    +@  @ @ +   ",
"    +    @ @+   ",
"    +++++++++   ",
"        $       ",
"        .       ",
"       ...      ",
"        .       "};
