/* XPM */
static char * whole_xpm[] = {
"16 15 8 1",
" 	c None",
".	c #00FF00",
"+	c #000000",
"@	c #FFFF00",
"#	c #001700",
"$	c #00EB00",
"%	c #009600",
"&	c #00F500",
"        .       ",
"       ...      ",
"        .       ",
"        .       ",
"    +++++++++   ",
"    + @     +   ",
" .  + @     # . ",
"...$+ @@    %...",
" .  +@  @ @ + . ",
"    +    @ @+   ",
"    +++++++++   ",
"        &       ",
"        .       ",
"       ...      ",
"        .       "};
