/* XPM */
static char * zoom_all_xpm[] = {
"24 24 140 2",
"  	c None",
". 	c #343434",
"+ 	c #2D2D2D",
"@ 	c #292929",
"# 	c #262626",
"$ 	c #2E2E2E",
"% 	c #303030",
"& 	c #737373",
"* 	c #A1A1A1",
"= 	c #B4B4B4",
"- 	c #B2B2B2",
"; 	c #9D9D9D",
"> 	c #676767",
", 	c #202020",
"' 	c #1C1C1C",
") 	c #272727",
"! 	c #616161",
"~ 	c #CACACA",
"{ 	c #CFCFCF",
"] 	c #D0D0D0",
"^ 	c #CECECE",
"/ 	c #C9C9C9",
"( 	c #C1C1C1",
"_ 	c #A7A7A7",
": 	c #4C4C4C",
"< 	c #131313",
"[ 	c #222222",
"} 	c #757575",
"| 	c #D3D3D3",
"1 	c #DBDBDB",
"2 	c #E7E7E7",
"3 	c #EFEFEF",
"4 	c #F3F3F3",
"5 	c #F1F1F1",
"6 	c #E5E5E5",
"7 	c #D2D2D2",
"8 	c #BCBCBC",
"9 	c #5E5E5E",
"0 	c #101010",
"a 	c #212121",
"b 	c #5B5B5B",
"c 	c #CCCCCC",
"d 	c #464646",
"e 	c #4B4B4B",
"f 	c #505050",
"g 	c #525252",
"h 	c #FBFBFB",
"i 	c #FAFAFA",
"j 	c #515151",
"k 	c #4F4F4F",
"l 	c #4A4A4A",
"m 	c #C2C2C2",
"n 	c #434343",
"o 	c #0F0F0F",
"p 	c #1F1F1F",
"q 	c #B9B9B9",
"r 	c #D6D6D6",
"s 	c #535353",
"t 	c #FDFDFD",
"u 	c #FCFCFC",
"v 	c #4D4D4D",
"w 	c #E4E4E4",
"x 	c #ABABAB",
"y 	c #0E0E0E",
"z 	c #1B1B1B",
"A 	c #6D6D6D",
"B 	c #E1E1E1",
"C 	c #FEFEFE",
"D 	c #F9F9F9",
"E 	c #4E4E4E",
"F 	c #E6E6E6",
"G 	c #575757",
"H 	c #090909",
"I 	c #141414",
"J 	c #A8A8A8",
"K 	c #D8D8D8",
"L 	c #EEEEEE",
"M 	c #F8F8F8",
"N 	c #DCDCDC",
"O 	c #9B9B9B",
"P 	c #060606",
"Q 	c #111111",
"R 	c #C5C5C5",
"S 	c #DFDFDF",
"T 	c #F5F5F5",
"U 	c #F7F7F7",
"V 	c #F2F2F2",
"W 	c #EDEDED",
"X 	c #BFBFBF",
"Y 	c #C6C6C6",
"Z 	c #E3E3E3",
"` 	c #ECECEC",
" .	c #F4F4F4",
"..	c #F0F0F0",
"+.	c #EAEAEA",
"@.	c #E0E0E0",
"#.	c #D7D7D7",
"$.	c #BABABA",
"%.	c #050505",
"&.	c #0B0B0B",
"*.	c #A5A5A5",
"=.	c #F6F6F6",
"-.	c #D1D1D1",
";.	c #939393",
">.	c #020202",
",.	c #0A0A0A",
"'.	c #5F5F5F",
").	c #D9D9D9",
"!.	c #E9E9E9",
"~.	c #484848",
"{.	c #D4D4D4",
"].	c #000000",
"^.	c #494949",
"/.	c #474747",
"(.	c #454545",
"_.	c #CBCBCB",
":.	c #3B3B3B",
"<.	c #DADADA",
"[.	c #444444",
"}.	c #414141",
"|.	c #BDBDBD",
"1.	c #C7C7C7",
"2.	c #CDCDCD",
"3.	c #C8C8C8",
"4.	c #B8B8B8",
"5.	c #030303",
"6.	c #313131",
"7.	c #999999",
"8.	c #BBBBBB",
"9.	c #B6B6B6",
"0.	c #909090",
"a.	c #2B2B2B",
"b.	c #010101",
"c.	c #7A7A7A",
"d.	c #9A9A9A",
"e.	c #777777",
"f.	c #3C3C3C",
"g.	c #686868",
"h.	c #797979",
"i.	c #3A3A3A",
"                                                ",
"              . + @ # # #                       ",
"          $ % & * = - ; > , '                   ",
"        ) ! = ~ { ] ^ / ( _ : <                 ",
"      [ } ~ | 1 2 3 4 5 6 7 8 9 0               ",
"    a b c d e f g h i j f k l m n o             ",
"    p q r : g g s t u g j k v w x y             ",
"  z A 7 B f g t C C t u D f E F 1 G H           ",
"  I J K L j g u C C t h M f E F N O P           ",
"  Q R S 3 T M h t t u i U V W 6 1 X P           ",
"  y Y Z ` V T M i i i U  ...+.@.#.$.%.          ",
"  &.*.B 2 E k  .=.=.T 4 3 v e 1 -.;.>.          ",
"  ,.'.).B e v L 3 3 L W !.e ~.{.~ : ].          ",
"    ,.= K ~.l e e F 2 l ^./.(._.* >.            ",
"    P :.c (.(./.~.<.1 /.d [.}.|.$ ].            ",
"      %.j m 1._.c 2._._.3.m 4.(.].              ",
"        5.6.7.8.|.8 8 8 9.0.a.].].].            ",
"          b.5.}.c.d.d.e.f.].].  ].].].].        ",
"              ].].].].].].        , , ].].      ",
"                                  ].g.. ].].    ",
"                                    ].h.i.].].  ",
"                                      ].g.p ].  ",
"                                        ].].    ",
"                                                "};
