/* XPM */
static char * zoom_vert_xpm[] = {
"24 24 140 2",
"  	c None",
". 	c #343434",
"+ 	c #2D2D2D",
"@ 	c #292929",
"# 	c #262626",
"$ 	c #2E2E2E",
"% 	c #303030",
"& 	c #737373",
"* 	c #A1A1A1",
"= 	c #B4B4B4",
"- 	c #B2B2B2",
"; 	c #9D9D9D",
"> 	c #676767",
", 	c #202020",
"' 	c #1C1C1C",
") 	c #272727",
"! 	c #616161",
"~ 	c #CACACA",
"{ 	c #CFCFCF",
"] 	c #D0D0D0",
"^ 	c #CECECE",
"/ 	c #C9C9C9",
"( 	c #C1C1C1",
"_ 	c #A7A7A7",
": 	c #4C4C4C",
"< 	c #131313",
"[ 	c #222222",
"} 	c #757575",
"| 	c #D3D3D3",
"1 	c #DBDBDB",
"2 	c #E7E7E7",
"3 	c #EFEFEF",
"4 	c #F3F3F3",
"5 	c #F1F1F1",
"6 	c #E5E5E5",
"7 	c #D2D2D2",
"8 	c #BCBCBC",
"9 	c #5E5E5E",
"0 	c #101010",
"a 	c #4E4E4E",
"b 	c #212121",
"c 	c #5B5B5B",
"d 	c #CCCCCC",
"e 	c #464646",
"f 	c #4B4B4B",
"g 	c #505050",
"h 	c #525252",
"i 	c #FBFBFB",
"j 	c #FAFAFA",
"k 	c #515151",
"l 	c #4F4F4F",
"m 	c #4A4A4A",
"n 	c #C2C2C2",
"o 	c #434343",
"p 	c #0F0F0F",
"q 	c #1F1F1F",
"r 	c #B9B9B9",
"s 	c #D6D6D6",
"t 	c #535353",
"u 	c #FDFDFD",
"v 	c #FCFCFC",
"w 	c #4D4D4D",
"x 	c #E4E4E4",
"y 	c #ABABAB",
"z 	c #0E0E0E",
"A 	c #1B1B1B",
"B 	c #6D6D6D",
"C 	c #E1E1E1",
"D 	c #F5F5F5",
"E 	c #F8F8F8",
"F 	c #FEFEFE",
"G 	c #F9F9F9",
"H 	c #F2F2F2",
"I 	c #EDEDED",
"J 	c #E6E6E6",
"K 	c #575757",
"L 	c #090909",
"M 	c #141414",
"N 	c #A8A8A8",
"O 	c #D8D8D8",
"P 	c #EEEEEE",
"Q 	c #DCDCDC",
"R 	c #9B9B9B",
"S 	c #060606",
"T 	c #111111",
"U 	c #C5C5C5",
"V 	c #DFDFDF",
"W 	c #F7F7F7",
"X 	c #BFBFBF",
"Y 	c #C6C6C6",
"Z 	c #E3E3E3",
"` 	c #ECECEC",
" .	c #F4F4F4",
"..	c #F0F0F0",
"+.	c #EAEAEA",
"@.	c #E0E0E0",
"#.	c #D7D7D7",
"$.	c #BABABA",
"%.	c #050505",
"&.	c #0B0B0B",
"*.	c #A5A5A5",
"=.	c #F6F6F6",
"-.	c #D1D1D1",
";.	c #939393",
">.	c #020202",
",.	c #0A0A0A",
"'.	c #5F5F5F",
").	c #D9D9D9",
"!.	c #E9E9E9",
"~.	c #D4D4D4",
"{.	c #000000",
"].	c #484848",
"^.	c #494949",
"/.	c #474747",
"(.	c #454545",
"_.	c #CBCBCB",
":.	c #3B3B3B",
"<.	c #DADADA",
"[.	c #444444",
"}.	c #414141",
"|.	c #BDBDBD",
"1.	c #C7C7C7",
"2.	c #CDCDCD",
"3.	c #C8C8C8",
"4.	c #B8B8B8",
"5.	c #030303",
"6.	c #313131",
"7.	c #999999",
"8.	c #BBBBBB",
"9.	c #B6B6B6",
"0.	c #909090",
"a.	c #2B2B2B",
"b.	c #010101",
"c.	c #7A7A7A",
"d.	c #9A9A9A",
"e.	c #777777",
"f.	c #3C3C3C",
"g.	c #686868",
"h.	c #797979",
"i.	c #3A3A3A",
"                                                ",
"              . + @ # # #                       ",
"          $ % & * = - ; > , '                   ",
"        ) ! = ~ { ] ^ / ( _ : <                 ",
"      [ } ~ | 1 2 3 4 5 6 7 8 9 0               ",
"a a b c d e f g h i j k g l m n o p k g l       ",
"a a q r s : h h t u v h k l w x y z h k l       ",
"  A B 7 C D E u F F u v G H I J 1 K L           ",
"  M N O P D E v F F u i E H I J Q R S           ",
"  T U V 3 D E i u u v j W H I 6 1 X S           ",
"  z Y Z ` H D E j j j W  ...+.@.#.$.%.          ",
"  &.*.C 2  . . .=.=.D 4 3 3 +.1 -.;.>.          ",
"  ,.'.).C P P P 3 3 P I !.!.@.~.~ : {.          ",
"a a ,.= O ].m f f J 2 m ^./.(._.* >.  a a       ",
"a a S :.d (.(./.].<.1 /.e [.}.|.$ {.a a a       ",
"      %.k n 1._.d 2._._.3.n 4.(.{.              ",
"        5.6.7.8.|.8 8 8 9.0.a.{.{.{.            ",
"          b.5.}.c.d.d.e.f.{.{.  {.{.{.{.        ",
"              {.{.{.{.{.{.        , , {.{.      ",
"                                  {.g.. {.{.    ",
"                                    {.h.i.{.{.  ",
"                                      {.g.q {.  ",
"                                        {.{.    ",
"                                                "};
