/* XPM */
static const char * editf_xpm[] = {
"24 24 44 1",
" 	c None",
".	c #000000",
"+	c #FFFFFF",
"@	c #C2C2C2",
"#	c #292929",
"$	c #040404",
"%	c #262626",
"&	c #BFBFBF",
"*	c #B6B6B6",
"=	c #494949",
"-	c #E6E6E6",
";	c #5F5F5F",
">	c #141414",
",	c #212121",
"'	c #848484",
")	c #272727",
"!	c #CBCBCB",
"~	c #FBFBFB",
"{	c #2D2D2D",
"]	c #D7D7D7",
"^	c #373737",
"/	c #C8C8C8",
"(	c #171717",
"_	c #DEDEDE",
":	c #515151",
"<	c #030303",
"[	c #FDFDFD",
"}	c #919191",
"|	c #303030",
"1	c #0A0A0A",
"2	c #7B7B7B",
"3	c #111111",
"4	c #F2F2F2",
"5	c #CACACA",
"6	c #151515",
"7	c #242424",
"8	c #C7C7C7",
"9	c #101010",
"0	c #BDBDBD",
"a	c #929292",
"b	c #FEFEFE",
"c	c #D6D6D6",
"d	c #CCCCCC",
"e	c #484848",
"                        ",
"                        ",
"                        ",
"                        ",
" ...................... ",
".++++++++++++++++++++++.",
".++++++++++++.+.++.++++.",
".+@#$%&+*=++++.-;>.,'++.",
".+).!.%~{]++++.^./(_:++.",
".+<.[.$}|#$%&+.1.234+++.",
".+%.5.676.!.)+.89...98+.",
".+0)<%{a<.b.$+.++432.1+.",
".++++c{~%.d.#+.+:_(/.^+.",
".++++e*+0%<)@+.+',.>;-+.",
".++++++++++++.+.++.++++.",
".++++++++++++++++++++++.",
" ...................... ",
"                        ",
"                        ",
"                        ",
"                        ",
"                        ",
"                        ",
"                        "};
