/* XPM */
static const char * edit_data_xpm[] = {
"24 24 62 1",
" 	c None",
".	c #000000",
"+	c #D7D7D7",
"@	c #B5B5B5",
"#	c #FFFFFF",
"$	c #C9C9C9",
"%	c #CCCCCC",
"&	c #ACACAC",
"*	c #F2F2F2",
"=	c #98C092",
"-	c #D1940C",
";	c #EED680",
">	c #96B04E",
",	c #568106",
"'	c #127704",
")	c #848808",
"!	c #EAE4CE",
"~	c #CEC8B2",
"{	c #F6F0DA",
"]	c #9ABF84",
"^	c #2F861F",
"/	c #C1D4A8",
"(	c #64A251",
"_	c #7FB16B",
":	c #D2DDB8",
"<	c #A1C38B",
"[	c #439132",
"}	c #C8920B",
"|	c #3B7D05",
"1	c #A48D0A",
"2	c #117203",
"3	c #A5A9A4",
"4	c #5EA055",
"5	c #429137",
"6	c #62A359",
"7	c #106C03",
"8	c #839E7F",
"9	c #0B4C02",
"0	c #789A73",
"a	c #54944B",
"b	c #5C9055",
"c	c #3C8532",
"d	c #81AA7C",
"e	c #3A892F",
"f	c #CBCBCB",
"g	c #81A97B",
"h	c #F1F1F1",
"i	c #97C092",
"j	c #7EA779",
"k	c #39892E",
"l	c #C7C7C7",
"m	c #072F01",
"n	c #599950",
"o	c #54954B",
"p	c #498940",
"q	c #348329",
"r	c #498A40",
"s	c #959595",
"t	c #D1D1D1",
"u	c #D2D2D2",
"v	c #CECECE",
"w	c #B4B4B4",
"                        ",
" .....................  ",
" .++++@#############$.  ",
" .+%%%&*************$.  ",
" .+%%%&*************$.  ",
" .+%%%&******=******$.  ",
" .-;-;-;-;->,');-;-;-.  ",
" .;!!!~{{{]''^'/{{{{;.  ",
" .-!!!~{{('((]'_:{{{-.  ",
" .;!!!~{]'(]{{('<{{{;.  ",
" .-!!!~{'[]{{{]'({{{-.  ",
" .;-;-;}'|;-;-;|'1;-;. 2",
" .+%%%345=*****6'=**$.7'",
" .+%%%8'5*******'6**$9'2",
" .+%%%0'6*******6'=*a'7 ",
" .+%%%b'=********'66'9  ",
" .@&&&c'd%%%%%%%%d'e'.  ",
" .+ffg'6hhhhhhhhhhi'j.  ",
" .+ffk'6hhhhhhhhhhhhl.  ",
" mno''phhhhhhhhhhhhh$.  ",
"'9a'qrs%tuvu%tuvu%%%w.  ",
"'''9m.................  ",
"'                       ",
"                        "};
