/* XPM */
static const char * log_y_toggle_xpm[] = {
"24 24 22 1",
" 	c None",
".	c #000000",
"+	c #221E11",
"@	c #0B0B06",
"#	c #363220",
"$	c #EAE8E3",
"%	c #2B2719",
"&	c #EED680",
"*	c #302C19",
"=	c #3D351F",
"-	c #2F2C19",
";	c #937025",
">	c #D29815",
",	c #322F1E",
"'	c #916F25",
")	c #C58F13",
"!	c #A97C1A",
"~	c #A37819",
"{	c #353120",
"]	c #B68411",
"^	c #231F13",
"/	c #826321",
"......            ......",
".                 .     ",
".                 .     ",
".                 ......",
".                 .     ",
"......            .     ",
".                 ......",
".                 .     ",
".                 .     ",
".                 .     ",
".        +@  @+   .     ",
"......  #$.  .$#  .     ",
".      %$&.  .&$% .     ",
".     *$&&.==.&&$*......",
".    *$&&&&&&&&&&$*     ",
".    -;>>>>>>>>>>;-     ",
".     ,'>)!~~!)>',.     ",
"...... {'].^^.]'{ .     ",
".       ,/.  ./,  .     ",
".        *.  .*   .     ",
".                 .     ",
".                 .     ",
".                 .     ",
"......            ......"};
