/* XPM */
static const char * open_data_xpm[] = {
"24 24 181 2",
"  	c None",
". 	c #127704",
"+ 	c #000000",
"@ 	c #117104",
"# 	c #010100",
"$ 	c #B5B8A5",
"% 	c #E4E7D2",
"& 	c #DAE1C8",
"* 	c #19680C",
"= 	c #0B0B0B",
"- 	c #E2E5CF",
"; 	c #CFD4AF",
"> 	c #C5CFA6",
", 	c #52963E",
"' 	c #348423",
") 	c #224A17",
"! 	c #23241D",
"~ 	c #9D9F90",
"{ 	c #C6CAA6",
"] 	c #C4C9A5",
"^ 	c #C6CBA7",
"/ 	c #97B57C",
"( 	c #398927",
"_ 	c #555847",
": 	c #1A1B15",
"< 	c #117603",
"[ 	c #20201A",
"} 	c #D4D6C2",
"| 	c #BEC2A0",
"1 	c #B3B896",
"2 	c #B0B595",
"3 	c #B3B797",
"4 	c #7EA466",
"5 	c #4F913B",
"6 	c #81856C",
"7 	c #3E3F32",
"8 	c #010101",
"9 	c #0B4C02",
"0 	c #072F01",
"a 	c #127604",
"b 	c #DADDC8",
"c 	c #AFB494",
"d 	c #AAAF8F",
"e 	c #A3A789",
"f 	c #A6AA8B",
"g 	c #5B9247",
"h 	c #6B9656",
"i 	c #A4A88A",
"j 	c #A1A588",
"k 	c #AAAD96",
"l 	c #B3B5A5",
"m 	c #B8BBAA",
"n 	c #BABCAB",
"o 	c #C1C3B2",
"p 	c #C7CAB7",
"q 	c #4E903F",
"r 	c #0C0C09",
"s 	c #DDDFCB",
"t 	c #969B7E",
"u 	c #9DA286",
"v 	c #95987C",
"w 	c #96997E",
"x 	c #378126",
"y 	c #618B4D",
"z 	c #9DA184",
"A 	c #A5AA8B",
"B 	c #A4A98A",
"C 	c #A3A889",
"D 	c #A2A588",
"E 	c #A2A587",
"F 	c #9FA386",
"G 	c #648E50",
"H 	c #0E5D03",
"I 	c #D8DBC9",
"J 	c #84866E",
"K 	c #7D8169",
"L 	c #151612",
"M 	c #D7DAC9",
"N 	c #797D67",
"O 	c #3D3F34",
"P 	c #E0E0D9",
"Q 	c #EBEDDD",
"R 	c #E8EBD9",
"S 	c #E7EAD8",
"T 	c #E3E6D4",
"U 	c #DEE1D0",
"V 	c #DADCCC",
"W 	c #DADCD1",
"X 	c #2B2C28",
"Y 	c #88B278",
"Z 	c #6F735E",
"` 	c #0D0D0D",
" .	c #F4F4EC",
"..	c #CED3AE",
"+.	c #CACFAB",
"@.	c #C6CBA8",
"#.	c #C2C6A4",
"$.	c #BBC09E",
"%.	c #ABB091",
"&.	c #23251E",
"*.	c #599A49",
"=.	c #494B3D",
"-.	c #DCDCD4",
";.	c #EAECDD",
">.	c #CDD2AD",
",.	c #CCD1AC",
"'.	c #CACFAA",
").	c #BABF9D",
"!.	c #B5B999",
"~.	c #81836C",
"{.	c #070806",
"].	c #161616",
"^.	c #F2F2EA",
"/.	c #C9CEAA",
"(.	c #C7CCA8",
"_.	c #C8CDA9",
":.	c #C4C9A6",
"<.	c #C1C5A3",
"[.	c #BCC09F",
"}.	c #B6BB9A",
"|.	c #B0B494",
"1.	c #9DA185",
"2.	c #535445",
"3.	c #749E65",
"4.	c #747470",
"5.	c #ECECE2",
"6.	c #C3C8A5",
"7.	c #C2C7A4",
"8.	c #C0C5A2",
"9.	c #BFC4A1",
"0.	c #BDC2A0",
"a.	c #B9BD9C",
"b.	c #B9BE9D",
"c.	c #A9AD8F",
"d.	c #A3A78A",
"e.	c #80836D",
"f.	c #020201",
"g.	c #A6A998",
"h.	c #B8BC9B",
"i.	c #AFB394",
"j.	c #ACB091",
"k.	c #A8AC8E",
"l.	c #A6AA8C",
"m.	c #9FA286",
"n.	c #9B9F83",
"o.	c #9A9D82",
"p.	c #8A8D75",
"q.	c #4F5243",
"r.	c #070705",
"s.	c #9E9F91",
"t.	c #E5E6DA",
"u.	c #ADB192",
"v.	c #A5A98C",
"w.	c #9FA387",
"x.	c #999D81",
"y.	c #95987E",
"z.	c #92957B",
"A.	c #8C8F76",
"B.	c #8A8D74",
"C.	c #71735F",
"D.	c #080908",
"E.	c #E3E5D9",
"F.	c #C0C3AF",
"G.	c #94987C",
"H.	c #8F9379",
"I.	c #8B8F75",
"J.	c #8A8E74",
"K.	c #888C73",
"L.	c #858970",
"M.	c #868971",
"N.	c #82866E",
"O.	c #80836C",
"P.	c #7D8069",
"Q.	c #797C66",
"R.	c #727560",
"S.	c #717460",
"T.	c #71745F",
"U.	c #6A6D59",
"V.	c #434538",
"W.	c #080907",
"X.	c #050504",
"                                                ",
"                                                ",
"                        . .                     ",
"                      . . . .                   ",
"                  . . . .   . .                 ",
"                  . .       . .                 ",
"    + + + + + + . @           . .               ",
"  # $ % % % % & . *           . .             . ",
"  = - ; ; ; > , ' )           . .           . . ",
"! ~ - { ] ^ / . ( _ :           . <       . . . ",
"[ } | 1 2 3 4 . 5 6 7 8 + + + + 9 . 0   a . .   ",
"! b c d e f g . h i j k l m n o p . q 9 . .     ",
"r s t u v w x . y z A B C D e E F G . H .       ",
"+ I J K L + + + + + + + + + + + + + + + 8 8     ",
"+ M N O P Q R R R R R R R R R R R S T U V W X   ",
"+ Y Z `  .; ; ; ; ; ; ; ; ; ......+.@.#.$.%.&.  ",
"9 *.=.-.;.>.....>...>.>.>.>.>.,.'.@.#.).!.~.{.  ",
". . ].^.+.'.+.'./.'./.(._._.@.:.<.[.}.|.1.2.r   ",
"9 3.4.5.6.7.7.#.8.#.9.0.8.0.a.b.3 2 c.d.e.f.    ",
"+ g.-.h.h.!.3 3 2 2 i.i.i.j.k.l.m.n.o.p.q.r.    ",
"+ s.t.u.c.l.v.d.d.j w.m.n.x.y.z.A.B.B.C.D.      ",
"+ E.F.G.H.I.J.K.K.L.M.N.O.P.Q.R.S.T.U.V.W.      ",
"  + + + + + + + + + + + + + + + + + + X.        ",
"                                                "};
