/* XPM */
static const char * save_data_xpm[] = {
"24 24 272 2",
"  	c None",
". 	c #000000",
"+ 	c #FBE73B",
"@ 	c #F2B64D",
"# 	c #FCEB3D",
"$ 	c #F7B544",
"% 	c #5D502C",
"& 	c #C3D7F4",
"* 	c #A9CDE5",
"= 	c #75757A",
"- 	c #EFC5BB",
"; 	c #F1C8BE",
"> 	c #F0C6BC",
", 	c #EEBCB2",
"' 	c #EEBEB5",
") 	c #EEC1B8",
"! 	c #EDBFB6",
"~ 	c #E8B6AC",
"{ 	c #FCE93B",
"] 	c #F7B545",
"^ 	c #6C5F34",
"/ 	c #434345",
"( 	c #92A7B9",
"_ 	c #96B1C7",
": 	c #BBD6E8",
"< 	c #8AAAC5",
"[ 	c #605F68",
"} 	c #E08D7E",
"| 	c #E0826E",
"1 	c #E0806E",
"2 	c #DC7A68",
"3 	c #DC8171",
"4 	c #DA7868",
"5 	c #D38072",
"6 	c #FAE43A",
"7 	c #F4B244",
"8 	c #615030",
"9 	c #783E35",
"0 	c #4D4C52",
"a 	c #7790A2",
"b 	c #526D82",
"c 	c #BAD5E9",
"d 	c #88A7C3",
"e 	c #686670",
"f 	c #C8817B",
"g 	c #CB7C74",
"h 	c #CB7A73",
"i 	c #CB7B73",
"j 	c #CC7C72",
"k 	c #CA7C72",
"l 	c #F9DF39",
"m 	c #F3AF42",
"n 	c #614F2F",
"o 	c #8F4941",
"p 	c #945554",
"q 	c #5B5A62",
"r 	c #7B97AE",
"s 	c #536F84",
"t 	c #B6D3E7",
"u 	c #87ABC1",
"v 	c #737373",
"w 	c #FFFFFF",
"x 	c #FEFEFE",
"y 	c #F9DC38",
"z 	c #EFB44D",
"A 	c #665A32",
"B 	c #BBBBBB",
"C 	c #CDCDCD",
"D 	c #E4E4E4",
"E 	c #6E6E6E",
"F 	c #819EB6",
"G 	c #526C80",
"H 	c #B9D3E7",
"I 	c #85A4BF",
"J 	c #F8D837",
"K 	c #F0A93F",
"L 	c #655930",
"M 	c #127704",
"N 	c #A0B89D",
"O 	c #E5E5E5",
"P 	c #F7F7F7",
"Q 	c #727272",
"R 	c #83A0B8",
"S 	c #4F697C",
"T 	c #B9D3E6",
"U 	c #84A3BF",
"V 	c #CECECE",
"W 	c #CCCCCC",
"X 	c #F6D236",
"Y 	c #EDA43E",
"Z 	c #5C5130",
"` 	c #010700",
" .	c #60885A",
"..	c #61955A",
"+.	c #A9B9A7",
"@.	c #BDBDBD",
"#.	c #88A4BB",
"$.	c #486276",
"%.	c #B7D2E7",
"&.	c #82A0BB",
"*.	c #636363",
"=.	c #FDFDFD",
"-.	c #D7AE74",
";.	c #61562F",
">.	c #BABABA",
",.	c #5D9E54",
"'.	c #A6CBA1",
").	c #465E70",
"!.	c #B5CAE5",
"~.	c #7FA2B9",
"{.	c #4F4115",
"].	c #9BC395",
"^.	c #67A85E",
"/.	c #87A3BA",
"(.	c #455C6D",
"_.	c #AECCE5",
":.	c #7DA0B6",
"<.	c #CBCBCB",
"[.	c #000300",
"}.	c #010B00",
"|.	c #56894F",
"1.	c #9C9C9C",
"2.	c #A7A7A7",
"3.	c #B8B8B8",
"4.	c #C6C6C6",
"5.	c #3A892F",
"6.	c #9BB298",
"7.	c #546069",
"8.	c #117403",
"9.	c #B0D1E4",
"0.	c #83A1B6",
"a.	c #735B5B",
"b.	c #F2F7F2",
"c.	c #5DA054",
"d.	c #48913E",
"e.	c #86AE81",
"f.	c #E1E1E1",
"g.	c #EDEDED",
"h.	c #F8F8F8",
"i.	c #A0C89A",
"j.	c #515C64",
"k.	c #106F03",
"l.	c #AACEE3",
"m.	c #7B9BB2",
"n.	c #7A8E9A",
"o.	c #7A7A7A",
"p.	c #587355",
"q.	c #25741A",
"r.	c #6C6C6C",
"s.	c #6F6F6F",
"t.	c #6A6E71",
"u.	c #317128",
"v.	c #6F777E",
"w.	c #86A2B9",
"x.	c #3A515D",
"y.	c #0B4C02",
"z.	c #A9C9E2",
"A.	c #7494AF",
"B.	c #5E937B",
"C.	c #388343",
"D.	c #7D9AB3",
"E.	c #7998B2",
"F.	c #85A1B8",
"G.	c #3A8544",
"H.	c #558F70",
"I.	c #8AA5BB",
"J.	c #1E6622",
"K.	c #ABC4E2",
"L.	c #7294AD",
"M.	c #6F90AC",
"N.	c #7192AE",
"O.	c #286127",
"P.	c #38663D",
"Q.	c #626F79",
"R.	c #5F6C76",
"S.	c #5C6971",
"T.	c #5A666F",
"U.	c #58636B",
"V.	c #57636A",
"W.	c #525B63",
"X.	c #3B5360",
"Y.	c #368243",
"Z.	c #468E4B",
"`.	c #AAC9E2",
" +	c #7091AA",
".+	c #6F8FA7",
"++	c #4A5359",
"@+	c #377E29",
"#+	c #8FB686",
"$+	c #EBEAE8",
"%+	c #EAE9E7",
"&+	c #DFDDDA",
"*+	c #CFCEC9",
"=+	c #C9C6C0",
"-+	c #9B968E",
";+	c #566168",
">+	c #346C4A",
",+	c #328832",
"'+	c #AAC9E1",
")+	c #6C8EA6",
"!+	c #6C8CA4",
"~+	c #2D5A2F",
"{+	c #5E9F54",
"]+	c #67655E",
"^+	c #524F47",
"/+	c #D9D7D4",
"(+	c #C7C5BF",
"_+	c #C0BCB5",
":+	c #B8B3AB",
"<+	c #434C54",
"[+	c #4D697F",
"}+	c #367250",
"|+	c #24542D",
"1+	c #A8C8E1",
"2+	c #6B8DA6",
"3+	c #728FA4",
"4+	c #1B6C13",
"5+	c #62A257",
"6+	c #CDCAC6",
"7+	c #C2BFB9",
"8+	c #CAC6C0",
"9+	c #DCDAD7",
"0+	c #4B555D",
"a+	c #4E697F",
"b+	c #4F6F84",
"c+	c #BACCDC",
"d+	c #313E49",
"e+	c #072F01",
"f+	c #469252",
"g+	c #317E3D",
"h+	c #5C9C51",
"i+	c #514E46",
"j+	c #4F4C44",
"k+	c #C7C4BE",
"l+	c #CBC8C2",
"m+	c #E1E0DC",
"n+	c #E9E8E6",
"o+	c #475158",
"p+	c #4E6879",
"q+	c #4D6C80",
"r+	c #A3C3DB",
"s+	c #383F43",
"t+	c #367D39",
"u+	c #237A24",
"v+	c #1D6018",
"w+	c #D7D4D0",
"x+	c #D6D4D0",
"y+	c #4E4A43",
"z+	c #4D4942",
"A+	c #D1CEC9",
"B+	c #E6E5E2",
"C+	c #EDECEA",
"D+	c #454F55",
"E+	c #486173",
"F+	c #4D6678",
"G+	c #A1C1DA",
"H+	c #373C40",
"I+	c #276D28",
"J+	c #3D714C",
"K+	c #4F5B62",
"L+	c #A4A099",
"M+	c #CCC9C3",
"N+	c #D7D5D1",
"O+	c #E4E2E0",
"P+	c #DDDBD7",
"Q+	c #B8B5B0",
"R+	c #3E474D",
"S+	c #4A6176",
"T+	c #4A6070",
"U+	c #9BC3D8",
"V+	c #363C41",
"W+	c #28323E",
"                                . .             ",
"                              . + @ .           ",
"    . . . . . . . . . . . . . # $ % . . .       ",
"  . & * = - ; > , ' ) ! ~ . { ] ^ . / ( _ .     ",
"  . : < [ } | 1 2 3 4 5 . 6 7 8 . 9 0 a b .     ",
"  . c d e f g h i j k . l m n . o p q r s .     ",
"  . t u v w w w w x . y z A . B C D E F G .     ",
"  . H I v w w w x . J K L . M N O P Q R S .     ",
"  . T U v V C W . X Y Z `  .M ..+.@.v #.$..     ",
"  . %.&.*.w w =.. -.;.. >.W ,.M '.w v #.)..     ",
"  . !.~.v w x . {.. . >.W D ].M ^.w v /.(..     ",
"  . _.:.v V <.[.}.|.1.2.3.4.<.5.M 6.v /.7..   8.",
"  . 9.0.a.w b.c.d.e.f.g.h.x w ^.M i.v R j.. k.M ",
"  . l.m.n.o.p.M q.r.s.t.E v v v M u.v.w.x.y.M 8.",
"  . z.A.F R B.M C.D.F E.w.F.F./.G.M H.I.J.M k.  ",
"  . K.L.M.N.O.M P.Q.R.S.T.U.V.W.X.M Y.Z.M y.    ",
"  . `. +.+++@+M #+$+$+%+&+*+=+-+;+>+M ,+M .     ",
"  . '+)+!+~+M {+]+^+^+/+(+_+:+*+<+[+}+M |+.     ",
"  . 1+2+3+4+M 5+]+^+^+6+7+_+8+9+0+a+b+c+d+.     ",
"  e+f+g+M M h+$+i+j+j+k+_+l+m+n+o+p+q+r+s+.     ",
"M y.t+M u+v+w+x+y+z+z+_+A+B+C+B+D+E+F+G+H+.     ",
"M M M I+J+K+L+_+:+M+M+N+O+%+P+Q+R+S+T+U+V+.     ",
"M     . . . . . . . . . . . . . . . . W+.       ",
"                                                "};
