/* XPM */
static const char * undo_fit_xpm[] = {
"24 24 105 2",
"  	c None",
". 	c #000000",
"+ 	c #CFCECA",
"@ 	c #E1E1E0",
"# 	c #97958F",
"$ 	c #888680",
"% 	c #8C8A83",
"& 	c #7F7C74",
"* 	c #EFE5BA",
"= 	c #7B7973",
"- 	c #66645E",
"; 	c #3F3E3A",
"> 	c #65635E",
", 	c #EFE7C1",
"' 	c #EED680",
") 	c #DDDCDB",
"! 	c #999891",
"~ 	c #52514D",
"{ 	c #161513",
"] 	c #EFE4B6",
"^ 	c #D5B75D",
"/ 	c #B29544",
"( 	c #797873",
"_ 	c #82807A",
": 	c #D1B051",
"< 	c #888681",
"[ 	c #C0AF73",
"} 	c #C0A048",
"| 	c #986B07",
"1 	c #D1940C",
"2 	c #E0B74C",
"3 	c #D9C374",
"4 	c #8F6406",
"5 	c #D59D1C",
"6 	c #B1933F",
"7 	c #DFB74A",
"8 	c #CCB76D",
"9 	c #7C7B75",
"0 	c #494845",
"a 	c #B8820A",
"b 	c #D9A72E",
"c 	c #504E48",
"d 	c #42423F",
"e 	c #484641",
"f 	c #8E8C86",
"g 	c #3A3937",
"h 	c #23221F",
"i 	c #2F2D2A",
"j 	c #D7A62C",
"k 	c #C7B26A",
"l 	c #E2E2E1",
"m 	c #B6B5AF",
"n 	c #9F9D96",
"o 	c #595854",
"p 	c #1E1D1B",
"q 	c #090807",
"r 	c #151514",
"s 	c #D4B150",
"t 	c #A39256",
"u 	c #242421",
"v 	c #898883",
"w 	c #33312D",
"x 	c #141413",
"y 	c #5A5958",
"z 	c #E2CB79",
"A 	c #898781",
"B 	c #8E8C85",
"C 	c #838078",
"D 	c #B0AFA9",
"E 	c #807D74",
"F 	c #AAA9A4",
"G 	c #DBDBD9",
"H 	c #C9B46B",
"I 	c #8D7E4A",
"J 	c #67655F",
"K 	c #403F3B",
"L 	c #686661",
"M 	c #7C7A72",
"N 	c #D6D5D2",
"O 	c #ABA9A3",
"P 	c #75736A",
"Q 	c #AE9C5C",
"R 	c #96864F",
"S 	c #3B3A36",
"T 	c #9A9992",
"U 	c #53524E",
"V 	c #171614",
"W 	c #767573",
"X 	c #9B9993",
"Y 	c #52504A",
"Z 	c #44423D",
"` 	c #4E4C46",
" .	c #3E3E39",
"..	c #7A7974",
"+.	c #86847D",
"@.	c #9A9996",
"#.	c #B7B6B3",
"$.	c #7D7B75",
"%.	c #42413C",
"&.	c #8A8883",
"*.	c #6B6964",
"=.	c #78756C",
"-.	c #5F5D56",
";.	c #54534D",
">.	c #403F3A",
"                . . .       .                   ",
"            . . . + . . . . .                   ",
"            . @ # $ % & . * .                   ",
"          . . = - ; > . , ' . . . .             ",
"          . ) ! ~ { . ] ' ' ' ' ^ / .           ",
"          . . ( _ . * ' ' ' ' ' ' ' : .         ",
"            . < . [ ' ' ' ' ' ' ' ' ' } .       ",
"            . . . . | 1 1 1 1 1 1 2 ' 3 . .     ",
"                . . . 4 1 1 1 1 1 1 5 ' 6 .     ",
"                      . 4 1 . . . | 1 7 8 .     ",
"                      . . | . 9 0 . a b ' .     ",
"                        . . . 0 c d . 1 ' .     ",
"                    . . e f . g h i . j k . .   ",
"          . . .     . l m n o p q r . s t u .   ",
"      . . . + . . . . . e n v w x y . z . . .   ",
"      . @ # A B C .     . D E F G . H I . . .   ",
"    . . = J K L M . . . N O n P . Q R . S .     ",
"    . ) T U V W X Y . . . o . Z ` . .  .. .     ",
"    . . ..+.@.#.$.. .   . .   . %.. . . .       ",
"      . &.*.=.-.;.. .         . . .             ",
"      . . . >.. . .                             ",
"          . . .                                 ",
"                                                ",
"                                                "};
