/* XPM */
static const char* xyconvert48_xpm[] = {
"48 48 54 1",
" 	c None",
".	c #000000",
"+	c #010002",
"@	c #1D2133",
"#	c #6377B1",
"$	c #667AB2",
"%	c #5C70AA",
"&	c #5269A4",
"*	c #6E7FB8",
"=	c #8695C6",
"-	c #576CA7",
";	c #3D5081",
">	c #596EA9",
",	c #8D9BC9",
"'	c #C9CEE3",
")	c #8594C5",
"!	c #6074A8",
"~	c #263558",
"{	c #7B8BBF",
"]	c #8C9AC8",
"^	c #798AB5",
"/	c #26375C",
"(	c #020103",
"_	c #7B8DB5",
":	c #2D406B",
"<	c #4B649D",
"[	c #687CAA",
"}	c #223458",
"|	c #374D7F",
"1	c #41588B",
"2	c #5E72A6",
"3	c #4E649E",
"4	c #4C639E",
"5	c #48619A",
"6	c #6E81AC",
"7	c #4E659A",
"8	c #131F39",
"9	c #070608",
"0	c #181818",
"a	c #33497B",
"b	c #526692",
"c	c #7587B1",
"d	c #7486B0",
"e	c #687DA8",
"f	c #4C6598",
"g	c #172643",
"h	c #171C2F",
"i	c #0E0E0E",
"j	c #263A68",
"k	c #2E457A",
"l	c #2C4274",
"m	c #20335A",
"n	c #13203B",
"o	c #171A2D",
"                                                ",
"                                                ",
"                        ....+                   ",
"                      @.#$#%&.                  ",
"                      .#*=*#-;.                 ",
"                     .>$,')$>!~                 ",
"                     .-#{]*#-^/(                ",
"                     .&%#$#%&_:.                ",
"                     .<&->-&<[}+                ",
"                     .|123456789                ",
"                      0abcdefg.                 ",
"                      hijklmn.o                 ",
"                        (...(                   ",
"                                                ",
"                                                ",
"                                                ",
"                                                ",
"                                                ",
"                                                ",
"                                                ",
"                                                ",
"                  ....+                         ",
"                @.#$#%&.                        ",
"                .#*=*#-;.                       ",
"               .>$,')$>!~                       ",
"               .-#{]*#-^/(                      ",
"               .&%#$#%&_:.            ....+     ",
"               .<&->-&<[}+          @.#$#%&.    ",
"               .|123456789          .#*=*#-;.   ",
"                0abcdefg.          .>$,')$>!~   ",
"                hijklmn.o          .-#{]*#-^/(  ",
"                  (...(            .&%#$#%&_:.  ",
"                                   .<&->-&<[}+  ",
"                                   .|123456789  ",
"                                    0abcdefg.   ",
"    ....+                           hijklmn.o   ",
"  @.#$#%&.                            (...(     ",
"  .#*=*#-;.                                     ",
" .>$,')$>!~                                     ",
" .-#{]*#-^/(                                    ",
" .&%#$#%&_:.                                    ",
" .<&->-&<[}+                                    ",
" .|123456789                                    ",
"  0abcdefg.                                     ",
"  hijklmn.o                                     ",
"    (...(                                       ",
"                                                ",
"                                                "};
