/* XPM */
static const char * zoom_up_xpm[] = {
"24 24 128 2",
"  	c None",
". 	c #343434",
"+ 	c #2D2D2D",
"@ 	c #292929",
"# 	c #262626",
"$ 	c #2E2E2E",
"% 	c #303030",
"& 	c #737373",
"* 	c #A1A1A1",
"= 	c #B4B4B4",
"- 	c #B2B2B2",
"; 	c #9D9D9D",
"> 	c #676767",
", 	c #202020",
"' 	c #1C1C1C",
") 	c #272727",
"! 	c #616161",
"~ 	c #CACACA",
"{ 	c #CFCFCF",
"] 	c #D0D0D0",
"^ 	c #CECECE",
"/ 	c #C9C9C9",
"( 	c #C1C1C1",
"_ 	c #A7A7A7",
": 	c #4C4C4C",
"< 	c #131313",
"[ 	c #222222",
"} 	c #757575",
"| 	c #D3D3D3",
"1 	c #DBDBDB",
"2 	c #E7E7E7",
"3 	c #4D4D4D",
"4 	c #F1F1F1",
"5 	c #E5E5E5",
"6 	c #D2D2D2",
"7 	c #BCBCBC",
"8 	c #5E5E5E",
"9 	c #101010",
"0 	c #212121",
"a 	c #5B5B5B",
"b 	c #CCCCCC",
"c 	c #D7D7D7",
"d 	c #F5F5F5",
"e 	c #434343",
"f 	c #F0F0F0",
"g 	c #E1E1E1",
"h 	c #C2C2C2",
"i 	c #0F0F0F",
"j 	c #1F1F1F",
"k 	c #B9B9B9",
"l 	c #D6D6D6",
"m 	c #FCFCFC",
"n 	c #7B7B7B",
"o 	c #818181",
"p 	c #F2F2F2",
"q 	c #ECECEC",
"r 	c #E4E4E4",
"s 	c #ABABAB",
"t 	c #0E0E0E",
"u 	c #1B1B1B",
"v 	c #6D6D6D",
"w 	c #7F7F7F",
"x 	c #444444",
"y 	c #828282",
"z 	c #AEAEAE",
"A 	c #EEEEEE",
"B 	c #E6E6E6",
"C 	c #575757",
"D 	c #090909",
"E 	c #141414",
"F 	c #A8A8A8",
"G 	c #D8D8D8",
"H 	c #F6F6F6",
"I 	c #646464",
"J 	c #B0B0B0",
"K 	c #B1B1B1",
"L 	c #DCDCDC",
"M 	c #9B9B9B",
"N 	c #060606",
"O 	c #111111",
"P 	c #C5C5C5",
"Q 	c #DFDFDF",
"R 	c #EFEFEF",
"S 	c #454545",
"T 	c #FFFFFF",
"U 	c #EDEDED",
"V 	c #BFBFBF",
"W 	c #C6C6C6",
"X 	c #E3E3E3",
"Y 	c #EAEAEA",
"Z 	c #E0E0E0",
"` 	c #BABABA",
" .	c #050505",
"..	c #0B0B0B",
"+.	c #A5A5A5",
"@.	c #D1D1D1",
"#.	c #939393",
"$.	c #020202",
"%.	c #0A0A0A",
"&.	c #5F5F5F",
"*.	c #D9D9D9",
"=.	c #E9E9E9",
"-.	c #D4D4D4",
";.	c #000000",
">.	c #DADADA",
",.	c #CBCBCB",
"'.	c #3B3B3B",
").	c #C8C8C8",
"!.	c #BDBDBD",
"~.	c #515151",
"{.	c #C7C7C7",
"].	c #B8B8B8",
"^.	c #030303",
"/.	c #313131",
"(.	c #999999",
"_.	c #BBBBBB",
":.	c #B6B6B6",
"<.	c #909090",
"[.	c #2B2B2B",
"}.	c #010101",
"|.	c #414141",
"1.	c #7A7A7A",
"2.	c #9A9A9A",
"3.	c #777777",
"4.	c #3C3C3C",
"5.	c #686868",
"6.	c #797979",
"7.	c #3A3A3A",
"                                                ",
"              . + @ # # #                       ",
"          $ % & * = - ; > , '                   ",
"        ) ! = ~ { ] ^ / ( _ : <                 ",
"      [ } ~ | 1 2 3 3 4 5 6 7 8 9               ",
"    0 a b c 5 d e e e e d f g h e i             ",
"    j k l 2 m n e e e e o p q r s t             ",
"  u v 6 g d * e w e x y e z A B 1 C D           ",
"  E F G A H I F s x x J K y A B L M N           ",
"  O P Q R d m m H x S m T T U 5 1 V N           ",
"  t W X q p m m H x S m T T Y Z c `  .          ",
"  ..+.g 2 U H H H x S H R q r 1 @.#.$.          ",
"  %.&.*.g B H H R e x U =.r 1 -.~ : ;.          ",
"    %.= G L H H B e e X Q >.-.,.* $.            ",
"    N '.b 6 -.e e e e e e ] ).!.$ ;.            ",
"       .~.h {.e e e e e e h ].S ;.              ",
"        ^./.(._.!.7 7 7 :.<.[.;.;.;.            ",
"          }.^.|.1.2.2.3.4.;.;.  ;.;.;.;.        ",
"              ;.;.;.;.;.;.        , , ;.;.      ",
"                                  ;.5.. ;.;.    ",
"                                    ;.6.7.;.;.  ",
"                                      ;.5.j ;.  ",
"                                        ;.;.    ",
"                                                "};
