/* XPM */
static char * active_mode_xpm[] = {
"24 24 4 1",
" 	c None",
".	c #4E4E4E",
"+	c #127704",
"@	c #676767",
"                        ",
"   ..                   ",
"   ..              ..   ",
"   ..              ..   ",
"   ..              ..   ",
"                   ..   ",
"            ++          ",
"   ..      ++++         ",
"   ..    ++++ ++   ..   ",
"   ..    ++   ++   ..   ",
"   ..   ++     ++  ..   ",
"        ++     ++  ..  @",
"       ++      ++     @@",
"   ..  ++       ++   @@@",
"   ..  ++       ++ ..@@ ",
"   .. ++         ++..@  ",
"   .. ++          +..   ",
"      ++           ..   ",
"     +++                ",
"  @..++                 ",
"@@@..+             ..   ",
"@@@..              ..   ",
"@  ..              ..   ",
"                   ..   "};
