/* XPM */
static const char * add_peak_xpm[] = {
"24 24 22 1",
" 	c None",
".	c #000000",
"+	c #F5E8BC",
"@	c #F1DE9C",
"#	c #E7C654",
"$	c #E4BF3D",
"%	c #CBA41C",
"&	c #EED88B",
"*	c #ECD175",
"=	c #E9CC66",
"-	c #E6C551",
";	c #F0DC97",
">	c #E7C758",
",	c #F3E3AC",
"'	c #D4AB1D",
")	c #8FA3B9",
"!	c #E2BA31",
"~	c #E1B726",
"{	c #587492",
"]	c #314E6B",
"^	c #ECD277",
"/	c #AA8917",
"                        ",
"     ...                ",
"    .+@#.               ",
"    .@$%.               ",
"  ...@$%...             ",
" .&**=$-;;>.            ",
" .,$$$$$$$'.)           ",
" .!%%$$~%%%.{)          ",
"  ...;$%...]]))         ",
"    .;$%.)]]]])         ",
"    .^%/.)]))]))        ",
"     ...)]{)){])        ",
"       ))])  )]))       ",
"       )]{)  ){])       ",
"      ))])    )]))      ",
"      )]{     )]])      ",
"     ))])     ))])      ",
"     )]])      )]{)     ",
"    ){])       ))])     ",
"    )]])        )]))    ",
"   ){]))        ){]{    ",
" )))]))           )]))) ",
" )]]{)            ){]]) ",
" ))))              )))) "};
