/* XPM */
static char * addpeak_mode_xpm[] = {
"24 24 55 1",
" 	c None",
".	c #000000",
"+	c #B8B39B",
"@	c #6E6E6E",
"#	c #EBE8D3",
"$	c #797979",
"%	c #FEFEED",
"&	c #7B7B7B",
"*	c #675E46",
"=	c #F4E7C2",
"-	c #FEFCE8",
";	c #A27E36",
">	c #645435",
",	c #9A8558",
"'	c #C7AF7A",
")	c #D9C28B",
"!	c #DFCA96",
"~	c #F3E5BE",
"{	c #CCB176",
"]	c #E1CC99",
"^	c #DEC58D",
"/	c #9F8B5F",
"(	c #442D0E",
"_	c #7D5A22",
":	c #BAA069",
"<	c #88601F",
"[	c #5E4417",
"}	c #D6C08E",
"|	c #1A1A1A",
"1	c #464646",
"2	c #636363",
"3	c #D8C291",
"4	c #585858",
"5	c #8C8C89",
"6	c #A8A7A3",
"7	c #8FA3B9",
"8	c #A09069",
"9	c #353535",
"0	c #787775",
"a	c #C0BFBD",
"b	c #C2C1BD",
"c	c #314E6B",
"d	c #8B8B88",
"e	c #D2D0D0",
"f	c #587492",
"g	c #9C9B97",
"h	c #DBDAD8",
"i	c #B0AFAC",
"j	c #EFEDE9",
"k	c #969592",
"l	c #EAE8E3",
"m	c #868583",
"n	c #9B9996",
"o	c #6E6E6C",
"p	c #8B8A86",
"          .             ",
"         .+.            ",
"        @.#.            ",
"       $..%..&          ",
"      ..*=-;>..         ",
"     .,')!~{]^/.        ",
"      ..(_:<[..         ",
"        ..}.|1.         ",
"        2.3.456.        ",
"        7.89.0ab.       ",
"        7c.7c.de6.      ",
"       7cf77fc.ghi.     ",
"      77c7  7c7.6jk.    ",
"      7cf7  7fc7.glm.   ",
"     77c7    7c77.nlo.  ",
"     7cf     7cc7 .kl0. ",
"    77c7     77c7  .pl0.",
"    7cc7      7cf7  .pl.",
"   7fc7       77c7   .. ",
"   7cc7        7c77     ",
"  7fc77        7fcf     ",
"777c77           7c777  ",
"7ccf7            7fcc7  ",
"7777              7777  "};
