/* XPM */
static char * cont_fit_xpm[] = {
"24 24 68 1",
" 	c None",
".	c #000000",
"+	c #CFCECA",
"@	c #E1E1E0",
"#	c #97958F",
"$	c #898781",
"%	c #8E8C85",
"&	c #838078",
"*	c #7B7973",
"=	c #67655F",
"-	c #403F3B",
";	c #686661",
">	c #7C7A72",
",	c #DDDCDB",
"'	c #9A9992",
")	c #53524E",
"!	c #171614",
"~	c #767573",
"{	c #9B9993",
"]	c #52504A",
"^	c #7A7974",
"/	c #86847D",
"(	c #9A9996",
"_	c #B7B6B3",
":	c #7D7B75",
"<	c #8A8883",
"[	c #6B6964",
"}	c #78756C",
"|	c #5F5D56",
"1	c #54534D",
"2	c #403F3A",
"3	c #E4E3E1",
"4	c #E2E2E2",
"5	c #B3B3B1",
"6	c #484641",
"7	c #9F9D96",
"8	c #888781",
"9	c #B0AFAD",
"0	c #A8A7A1",
"a	c #908E86",
"b	c #97958E",
"c	c #807D74",
"d	c #595854",
"e	c #605E57",
"f	c #898883",
"g	c #76746B",
"h	c #43423F",
"i	c #282724",
"j	c #363430",
"k	c #6D6B63",
"l	c #E2E2E1",
"m	c #B6B5AF",
"n	c #21201E",
"o	c #0A0908",
"p	c #181816",
"q	c #E6E6E4",
"r	c #65635C",
"s	c #161614",
"t	c #8C8B89",
"u	c #DFDEDC",
"v	c #B0AFA9",
"w	c #D5D4D1",
"x	c #93918B",
"y	c #D6D5D2",
"z	c #ABA9A3",
"A	c #5D5C55",
"B	c #494943",
"C	c #42413C",
"        ...             ",
"      ...+...           ",
"      .@#$%&.           ",
"     ..*=-;>..          ",
"     .,')!~{].          ",
"     ..^/(_:..          ",
"      .<[}|1..          ",
"      ...2...  ...      ",
"        ... .. .3. ..   ",
"           .45.676.8..  ",
"           .90777abc6.  ",
"            .77defcg.   ",
"          ..67ehij7k6.. ",
"     ...  .lm7dnopqcre. ",
"   ...+.....67fjstur6.. ",
"   .@#$%&.  .vcmqwxr..  ",
"  ..*=-;>...yz7ccggA6.  ",
"  .,')!~{]...d.6g6.B..  ",
"  ..^/(_:.. .. .C....   ",
"   .<[}|1..    ...      ",
"   ...2...              ",
"     ...                ",
"                        ",
"                        "};
