/* XPM */
static const char * exec_down_xpm[] = {
"24 24 178 2",
"  	c None",
". 	c #000000",
"+ 	c #E2E2E2",
"@ 	c #F2F2F2",
"# 	c #CFCECA",
"$ 	c #A6A6A6",
"% 	c #E8E8E8",
"& 	c #F3F3F3",
"* 	c #F7F7F7",
"= 	c #F4F4F4",
"- 	c #DBDBDB",
"; 	c #F0F0F0",
"> 	c #E0E0E0",
", 	c #E1E1E1",
"' 	c #DFDFDF",
") 	c #E1E1E0",
"! 	c #97958F",
"~ 	c #898781",
"{ 	c #8E8C85",
"] 	c #838078",
"^ 	c #858585",
"/ 	c #CDCDCD",
"( 	c #E4E4E4",
"_ 	c #ECECEC",
": 	c #EEEEEE",
"< 	c #EFEFEF",
"[ 	c #EDEDED",
"} 	c #898989",
"| 	c #D9D9D9",
"1 	c #7B7973",
"2 	c #67655F",
"3 	c #403F3B",
"4 	c #686661",
"5 	c #7C7A72",
"6 	c #717171",
"7 	c #8B8B8B",
"8 	c #8E8E8E",
"9 	c #F1F1F1",
"0 	c #E7E7E7",
"a 	c #DDDCDB",
"b 	c #9A9992",
"c 	c #53524E",
"d 	c #171614",
"e 	c #767573",
"f 	c #9B9993",
"g 	c #52504A",
"h 	c #B0B0B0",
"i 	c #D8D8D8",
"j 	c #E3E3E3",
"k 	c #8A8A8A",
"l 	c #A8A8A8",
"m 	c #DDDDDD",
"n 	c #7A7974",
"o 	c #86847D",
"p 	c #9A9996",
"q 	c #B7B6B3",
"r 	c #7D7B75",
"s 	c #646464",
"t 	c #7E7E7E",
"u 	c #8C8C8C",
"v 	c #8F8F8F",
"w 	c #E9E9E9",
"x 	c #EAEAEA",
"y 	c #D7D7D7",
"z 	c #8B8984",
"A 	c #6B6964",
"B 	c #78756C",
"C 	c #5F5D56",
"D 	c #54534D",
"E 	c #656565",
"F 	c #B1B1B1",
"G 	c #EBEBEB",
"H 	c #E5E5E5",
"I 	c #5C5B57",
"J 	c #676662",
"K 	c #93928C",
"L 	c #63625E",
"M 	c #403F3A",
"N 	c #363433",
"O 	c #4B4947",
"P 	c #E6E6E6",
"Q 	c #9C9A94",
"R 	c #9C9B94",
"S 	c #9D9B95",
"T 	c #9B9A94",
"U 	c #908E89",
"V 	c #7C7A75",
"W 	c #565552",
"X 	c #050504",
"Y 	c #050505",
"Z 	c #656560",
"` 	c #030303",
" .	c #E4E3E1",
"..	c #979797",
"+.	c #0A0A0A",
"@.	c #5C5C58",
"#.	c #5D5C59",
"$.	c #9D9C96",
"%.	c #5C5A57",
"&.	c #565452",
"*.	c #504F4C",
"=.	c #474744",
"-.	c #444340",
";.	c #DEDEDE",
">.	c #B3B3B1",
",.	c #484641",
"'.	c #9F9D96",
").	c #080808",
"!.	c #888781",
"~.	c #F5F5F5",
"{.	c #9F9D97",
"].	c #9E9D96",
"^.	c #908E86",
"/.	c #97958E",
"(.	c #807D74",
"_.	c #5E5D5A",
":.	c #5F5D5A",
"<.	c #918F8A",
"[.	c #5F5E5B",
"}.	c #B5C9DC",
"|.	c #9BB6D0",
"1.	c #91B0CC",
"2.	c #49749C",
"3.	c #456F96",
"4.	c #595854",
"5.	c #605E57",
"6.	c #898883",
"7.	c #76746B",
"8.	c #AFC5DA",
"9.	c #A0BAD3",
"0.	c #9EB8D1",
"a.	c #3F6588",
"b.	c #375978",
"c.	c #43423F",
"d.	c #282724",
"e.	c #363430",
"f.	c #6D6B63",
"g.	c #F6F6F6",
"h.	c #909090",
"i.	c #7B7B7B",
"j.	c #B2C7DB",
"k.	c #9CB7D1",
"l.	c #9AB5CF",
"m.	c #21201E",
"n.	c #0A0908",
"o.	c #181816",
"p.	c #E6E6E4",
"q.	c #65635C",
"r.	c #B6CADD",
"s.	c #161614",
"t.	c #8C8B89",
"u.	c #DFDEDC",
"v.	c #B6B5AF",
"w.	c #D5D4D1",
"x.	c #93918B",
"y.	c #F8F8F8",
"z.	c #5D5C55",
"A.	c #DCDBDA",
"B.	c #5B88B2",
"C.	c #A4BDD5",
"D.	c #2A435B",
"E.	c #494943",
"F.	c #7A7975",
"G.	c #5080AD",
"H.	c #42413C",
"I.	c #111111",
"J.	c #7F7F7F",
"K.	c #070707",
"L.	c #C9C9C9",
"M.	c #97B3CE",
"N.	c #0E0E0E",
"O.	c #0D0D0D",
"P.	c #A3A3A3",
"Q.	c #3E3E39",
"R.	c #080D11",
"S.	c #5F8BB4",
"T.	c #95B2CE",
"U.	c #4C79A3",
"                                                ",
"  . . . . . . . . . . . . . . . . . . . .       ",
". + @ @ @ @ @ . . . # . . . $ % & * * = - .     ",
". ; > > , + ' . ) ! ~ { ] . ^ / ( _ : < [ .     ",
". @ , } } | . . 1 2 3 4 5 . . 6 ^ 7 8 ; 9 .     ",
". @ + 0 % 0 . a b c d e f g . h i _ ; 9 @ .     ",
". & j k l m . . n o p q r . . s t u v @ & .     ",
". & ( w x w y . z A B C D . E F i G < 9 & .     ",
". & H I J K L . . . M . . . N O . . . ' _ .     ",
". = P Q R S T U V . . . W X Y Z `  .` ..+..     ",
". = 0 @.#.$.#.%.&.*.=.-.` ;.>.` ,.'.,.).!.. .   ",
". ~.% $.$.$.{.{.].. . . . . . . '.'.^./.(.,..   ",
". ~.w _.:.<.:.[.[.. }.|.1.2.3.. 4.5.6.(.7.. .   ",
". ~.x @ & < = @ & . 8.9.0.a.b.. c.d.e.'.f.,.. . ",
". g.G h.i.... . . . j.k.l.a.b.. m.n.o.p.(.q.5.. ",
". * [ = . . . # . . r.k.l.a.b.. e.s.t.u.q.,.. . ",
". * : v . ) ! ~ { . r.|.|.a.b.. v.p.w.x.q.. .   ",
". y.; . . 1 . . . . r.l.k.a.b.. . . . 7.z.,..   ",
". y.9 . A.b c . B.0.C.9.k.a.a.a.D.. ,.).E.. .   ",
". @ @ . . F.o p . G.k.k.k.a.a.D.. H.I.J.K.. .   ",
". L.[ + . z A B C . G.M.9.a.D.. I.N.O.P.8 .     ",
"  . . . . . . Q.. . R.S.T.D.. . . . . . .       ",
"            . . . .   . U..                     ",
"                        .                       "};
