/* XPM */
static const char * filter_xpm[] = {
"23 19 62 1",
" 	c None",
".	c #000000",
"+	c #D7D7D7",
"@	c #B5B5B5",
"#	c #A9A9A9",
"$	c #CCCCCC",
"%	c #ACACAC",
"&	c #8E8E8E",
"*	c #FFFFFF",
"=	c #F2F2F2",
"-	c #C9C9C9",
";	c #494066",
">	c #D4D4D4",
",	c #D0D0D0",
"'	c #E3E3E3",
")	c #EDEDED",
"!	c #F6F6F6",
"~	c #EAEAEA",
"{	c #DADADA",
"]	c #CDCDCD",
"^	c #C5C5C5",
"/	c #C4C4C4",
"(	c #B9B9B9",
"_	c #ADADAD",
":	c #A7A7A7",
"<	c #898989",
"[	c #D5D5D5",
"}	c #E8E8E8",
"|	c #F1F1F1",
"1	c #FAFAFA",
"2	c #DDDDDD",
"3	c #C8C8C8",
"4	c #BDBDBD",
"5	c #B1B1B1",
"6	c #AAAAAA",
"7	c #8A8A8A",
"8	c #3C3554",
"9	c #D9D9D9",
"0	c #FEFEFE",
"a	c #EFEFEF",
"b	c #C6C6C6",
"c	c #B6B6B6",
"d	c #ABABAB",
"e	c #F7F7F7",
"f	c #C3C3C3",
"g	c #B2B2B2",
"h	c #8B8B8B",
"i	c #E2E2E2",
"j	c #F0F0F0",
"k	c #CBCBCB",
"l	c #BEBEBE",
"m	c #939393",
"n	c #E4E4E4",
"o	c #DCDCDC",
"p	c #9D9D9D",
"q	c #E1E1E1",
"r	c #C7C7C7",
"s	c #D1D1D1",
"t	c #D2D2D2",
"u	c #CECECE",
"v	c #D3D3D3",
"w	c #B4B4B4",
".....................  ",
".++++@++++@++++@+++#.  ",
".+$$$%$$$$%$$$$%$$$#.  ",
".@%%%%%%%%%%%%%%%%%&.  ",
".*=================-.  ",
".*=;=;.................",
".*====.**************>.",
".*=;=;.,')!*!~{]^/(_:<.",
".*====-.[}|11)2,34567. ",
".*=;=;;8.9)!0a2,bcd7.  ",
".*======-.2|e)9,fgh..  ",
".*=;=;;;;8.i=j9klm.:.  ",
".*========-.njo-p.--.  ",
".*|;|;;;;;;8.nq:.3|r.  ",
".*||||||||||3.9.3||r.  ",
".*|||||||||||.>.|||-.  ",
".astut$stut$s.v.$$$w.  ",
"..............t......  ",
"             ...       "};
