/* XPM */
static const char * goto_xpm[] = {
"12 14 54 1",
" 	c None",
".	c #AA5500",
"+	c #CC6600",
"@	c #D55500",
"#	c #FF7100",
"$	c #F37400",
"%	c #CA6000",
"&	c #DF6800",
"*	c #CC5E00",
"=	c #EF7804",
"-	c #CE5C00",
";	c #F69C45",
">	c #EA7100",
",	c #D05D00",
"'	c #D05E00",
")	c #E5740C",
"!	c #F9AC60",
"~	c #D15D00",
"{	c #D05E00",
"]	c #DA6600",
"^	c #D05E00",
"/	c #D05E00",
"(	c #DA731A",
"_	c #DF7A25",
":	c #DF7F2D",
"<	c #E58F43",
"[	c #D06209",
"}	c #CF5C00",
"|	c #FAB979",
"1	c #ED9A4D",
"2	c #CE5C00",
"3	c #D0630B",
"4	c #F3A459",
"5	c #F4B06F",
"6	c #F4BF91",
"7	c #F57900",
"8	c #F57A01",
"9	c #F57A02",
"0	c #F57C05",
"a	c #F57E09",
"b	c #F68110",
"c	c #F7993C",
"d	c #F89C42",
"e	c #F8A04A",
"f	c #F8A757",
"g	c #F8A859",
"h	c #F8CBA0",
"i	c #F8CCA3",
"j	c #F9BF87",
"k	c #FAB979",
"l	c #FABA7C",
"m	c #FABE84",
"n	c #FABE85",
"o	c #FAC088",
"            ",
"     22     ",
"     2h2    ",
"     2oi2   ",
"[22223ogi2  ",
"ooooooe8fi2 ",
"baaaa0779k62",
"moooooe8fi2 ",
"}22223ogi2  ",
"     2oi2   ",
"     2h2    ",
"     22     ",
"            ",
"            "};
