/* XPM */
static const char * lock_open_xpm[] = {
"12 14 66 1",
" 	c None",
".	c #000000",
"+	c #1E1E1E",
"@	c #7A7A7A",
"#	c #D2D2D2",
"$	c #DBDBDB",
"%	c #727272",
"&	c #080808",
"*	c #848484",
"=	c #BEBEBE",
"-	c #363636",
";	c #1D1D1D",
">	c #B1B1B1",
",	c #2D2D2D",
"'	c #C2C2C2",
")	c #090909",
"!	c #2E2E2E",
"~	c #AAAAAA",
"{	c #2B2B2B",
"]	c #C0C0C0",
"^	c #161616",
"/	c #C1C0C0",
"(	c #13110E",
"_	c #9B9794",
":	c #201D1C",
"<	c #0B0B07",
"[	c #040302",
"}	c #050403",
"|	c #A59176",
"1	c #E0C4A0",
"2	c #DFC4A3",
"3	c #DABE9A",
"4	c #E2C5A1",
"5	c #D8B58C",
"6	c #CA9F68",
"7	c #AC8758",
"8	c #A78252",
"9	c #A78253",
"0	c #E3C6A2",
"a	c #D5AE7E",
"b	c #B08D5F",
"c	c #D5B284",
"d	c #CFAB7C",
"e	c #CFAC7B",
"f	c #E1C4A0",
"g	c #D0A674",
"h	c #C79B64",
"i	c #AA8455",
"j	c #A47E4E",
"k	c #E1C29C",
"l	c #CEA470",
"m	c #AD8D64",
"n	c #D2B289",
"o	c #CDAC83",
"p	c #CEAD83",
"q	c #E0C29E",
"r	c #D4AC79",
"s	c #CDA66E",
"t	c #AF8D5E",
"u	c #AB8758",
"v	c #AB8858",
"w	c #D0A874",
"x	c #C6965D",
"y	c #BE8D50",
"z	c #BA894B",
"A	c #BD8C4E",
"   ..       ",
" +@#$%&     ",
" *=-;>*     ",
",')  !~.    ",
"{].  ^/.    ",
"     (_:<[[}",
"    .|122333",
"    .4567889",
"    .0abcdde",
"    .fghijjj",
"    .klmnoop",
"    .qrstuuv",
"    .wxyyzzA",
"     ......."};
