/* XPM */
static char * mouse_l_xpm[] = {
"11 13 2 1",
" 	c None",
".	c #000000",
" ......... ",
".         .",
".         .",
". ... ... .",
". ... . . .",
". ... . . .",
". ... . . .",
". ... ... .",
".         .",
".         .",
".         .",
".         .",
" ......... "};
