/* XPM */
static const char * mouse_r_xpm[] = {
"11 13 2 1",
" 	c None",
".	c #000000",
" ......... ",
".         .",
".         .",
". ... ... .",
". . . ... .",
". . . ... .",
". . . ... .",
". ... ... .",
".         .",
".         .",
".         .",
".         .",
" ......... "};
