/* XPM */
static const char * powdifpat48_xpm[] = {
"48 48 112 2",
"  	c None",
". 	c #000000",
"+ 	c #020100",
"@ 	c #331D1D",
"# 	c #B16369",
"$ 	c #B2666B",
"% 	c #AA5C62",
"& 	c #A4525A",
"* 	c #B86E72",
"= 	c #C68689",
"- 	c #A7575D",
"; 	c #813D43",
"> 	c #A9595F",
", 	c #C98D90",
"' 	c #E3C9C9",
") 	c #C58588",
"! 	c #A86067",
"~ 	c #58262C",
"{ 	c #BF7B7E",
"] 	c #C88C8F",
"^ 	c #B5797F",
"/ 	c #5C262C",
"( 	c #030201",
"_ 	c #B57B82",
": 	c #6B2D34",
"< 	c #9D4B55",
"[ 	c #AA6870",
"} 	c #58222A",
"| 	c #7F373F",
"1 	c #8B414A",
"2 	c #A65E65",
"3 	c #9E4E56",
"4 	c #9E4C54",
"5 	c #9A4851",
"6 	c #AC6E75",
"7 	c #9A4E57",
"8 	c #391317",
"9 	c #080706",
"0 	c #060600",
"a 	c #0B0A05",
"b 	c #181818",
"c 	c #7B333B",
"d 	c #925259",
"e 	c #B1757C",
"f 	c #B0747B",
"g 	c #A86871",
"h 	c #984C57",
"i 	c #43171D",
"j 	c #FDFD00",
"k 	c #ADA803",
"l 	c #C1BD06",
"m 	c #2F1718",
"n 	c #0E0E0E",
"o 	c #68262E",
"p 	c #7A2E37",
"q 	c #742C34",
"r 	c #5A2028",
"s 	c #3B1319",
"t 	c #2D1817",
"u 	c #FFFF00",
"v 	c #F9F800",
"w 	c #8C7F0D",
"x 	c #80730D",
"y 	c #F4F400",
"z 	c #FAF900",
"A 	c #FCFC00",
"B 	c #F3F301",
"C 	c #CBC606",
"D 	c #494800",
"E 	c #383700",
"F 	c #C6C007",
"G 	c #F6F600",
"H 	c #F8F800",
"I 	c #F7F700",
"J 	c #F0F000",
"K 	c #F3F300",
"L 	c #F3F200",
"M 	c #E8E801",
"N 	c #D8D703",
"O 	c #E7E701",
"P 	c #DAD903",
"Q 	c #F0EF00",
"R 	c #080700",
"S 	c #D9D405",
"T 	c #8D8906",
"U 	c #4E4E00",
"V 	c #1E1E00",
"W 	c #373600",
"X 	c #A4A005",
"Y 	c #080800",
"Z 	c #51371A",
"` 	c #3A241B",
" .	c #E4E402",
"..	c #252400",
"+.	c #FDFC00",
"@.	c #7A7A03",
"#.	c #E6E602",
"$.	c #3F3F00",
"%.	c #CBC705",
"&.	c #F2F201",
"*.	c #040300",
"=.	c #BBB508",
"-.	c #F1F101",
";.	c #BDB608",
">.	c #C2BC07",
",.	c #F2F100",
"'.	c #DAD902",
").	c #402C1B",
"!.	c #7B6714",
"~.	c #FBFB00",
"{.	c #BBB605",
"].	c #C7C305",
"                                                                                                ",
"                                                                                                ",
"          . . . . +                         . . . . +                       . . . . +           ",
"      @ . # $ # % & .                   @ . # $ # % & .                 @ . # $ # % & .         ",
"      . # * = * # - ; .                 . # * = * # - ; .               . # * = * # - ; .       ",
"    . > $ , ' ) $ > ! ~               . > $ , ' ) $ > ! ~             . > $ , ' ) $ > ! ~       ",
"    . - # { ] * # - ^ / (             . - # { ] * # - ^ / (           . - # { ] * # - ^ / (     ",
"    . & % # $ # % & _ : .             . & % # $ # % & _ : .           . & % # $ # % & _ : .     ",
"    . < & - > - & < [ } +             . < & - > - & < [ } +           . < & - > - & < [ } +     ",
"    . | 1 2 3 4 5 6 7 8 9             0 | 1 2 3 4 5 6 7 8 a           . | 1 2 3 4 5 6 7 8 9     ",
"      b c d e f g h i .             j k b c d e f g h i . l             b c d e f g h i .       ",
"      m n o p q r s . t         u u j v w n o p q r s . x y z u         m n o p q r s . t       ",
"          ( . . . (           u u u u A B C D . . . E F G H I u u           ( . . . (           ",
"                            u J     u u u u u u u u u u u u     J u                             ",
"                          u u       u u u u u u u u u u u u       u u                           ",
"                        u u           u u u u u u u u u u           u u                         ",
"                      u u               u u u u u u u u               u u                       ",
"                      u                 u u u u u u u u                 u                       ",
"                    K A                   L G M N N O                   P Q                     ",
"          . . . . R S                     T U V . . W                     X Y . . . +           ",
"      @ . # $ # % & . Z                 @ . # $ # % & .                 ` . # $ # % & .         ",
"      . # * = * # - ; .                 . # * = * # - ; .               . # * = * # - ; .       ",
"    . > $ , ' ) $ > ! ~               . > $ , ' ) $ > ! ~             . > $ , ' ) $ > ! ~       ",
"    . - # { ] * # - ^ / (             . - # { ] * # - ^ / (           . - # { ] * # - ^ / (     ",
"    . & % # $ # % & _ : .  .u u u u A . & % # $ # % & _ : .  .u u u A . & % # $ # % & _ : .     ",
"    . < & - > - & < [ } .. .u u u u +.. < & - > - & < [ } .. .u u u +.. < & - > - & < [ } +     ",
"    . | 1 2 3 4 5 6 7 8 @.#.u u u u A $.| 1 2 3 4 5 6 7 8 @.#.u u u A $.| 1 2 3 4 5 6 7 8 9     ",
"      b c d e f g h i . %.&.u u u u j k b c d e f g h i . %.&.u u u j k b c d e f g h i .       ",
"      m n o p q r s . x y z u u u u j v w n o p q r s . x y z u u u j v w n o p q r s . t       ",
"          ( . . . *.=.G H H u u u u u A -.  ( . . . ( ;.G H H u u u u A B >.*.. . . (           ",
"                      u u u u ,.u u u u                 u u u u ,.u u u u                       ",
"                      u u u u A u u u u                 u u u u A u u u u                       ",
"                        u u u u u u u                     u u u u u u u                         ",
"                          u u u u u u                       u u u u u                           ",
"                            u u u u                         u u u u                             ",
"          . . . . +           u u u         . . . . +         u u           . . . . +           ",
"      @ . # $ # % & .           u u '.  ).. # $ # % & . !.,.~.u         @ . # $ # % & .         ",
"      . # * = * # - ; .             J {.. # * = * # - ; . ].            . # * = * # - ; .       ",
"    . > $ , ' ) $ > ! ~               Y > $ , ' ) $ > ! ~             . > $ , ' ) $ > ! ~       ",
"    . - # { ] * # - ^ / (             . - # { ] * # - ^ / (           . - # { ] * # - ^ / (     ",
"    . & % # $ # % & _ : .             . & % # $ # % & _ : .           . & % # $ # % & _ : .     ",
"    . < & - > - & < [ } +             . < & - > - & < [ } +           . < & - > - & < [ } +     ",
"    . | 1 2 3 4 5 6 7 8 9             . | 1 2 3 4 5 6 7 8 9           . | 1 2 3 4 5 6 7 8 9     ",
"      b c d e f g h i .                 b c d e f g h i .               b c d e f g h i .       ",
"      m n o p q r s . t                 m n o p q r s . t               m n o p q r s . t       ",
"          ( . . . (                         ( . . . (                       ( . . . (           ",
"                                                                                                ",
"                                                                                                "};
