/* XPM */
static const char * powdifpat16_xpm[] = {
"16 16 8 1",
" 	c None",
".	c #000000",
"+	c #DCBBB6",
"@	c #C9887F",
"#	c #B75447",
"$	c #CB8A81",
"%	c #C8877E",
"&	c #8B3F35",
" ...   ...   ...",
".+@#. .+@#. .+@#",
".$%#. .$%#. .$%#",
".##&. .##&. .##&",
" ...   ...   ...",
"                ",
" ...   ...   ...",
".+@#. .+@#. .+@#",
".$%#. .$%#. .$%#",
".##&. .##&. .##&",
" ...   ...   ...",
"                ",
" ...   ...   ...",
".+@#. .+@#. .+@#",
".$%#. .$%#. .$%#",
".##&. .##&. .##&"};
