/* XPM */
static const char * right_pane_xpm[] = {
"24 24 14 1",
" 	c None",
".	c #000000",
"+	c #565248",
"@	c #ABABAB",
"#	c #D3D3D3",
"$	c #A2A2A2",
"%	c #C8C8C8",
"&	c #A1A1A1",
"*	c #C7C7C7",
"=	c #8C8C8C",
"-	c #AAAAAA",
";	c #ADADAD",
">	c #ACACAC",
",	c #C5C5C5",
"                        ",
"  ..................... ",
"  .+++++++++++++.@####. ",
"  .+           +.$%%%#. ",
"  .+           +.$$$$@. ",
"  .+           +.$%%%#. ",
"  .+           +.$$$$@. ",
"  .+           +.$%%%#. ",
"  .+           +.$$$$@. ",
"  .+           +.$%%%#. ",
"  .+           +.$$$$@. ",
"  .+           +.$%%%#. ",
"  .+           +.$$$$@. ",
"  .+           +.$%%%#. ",
"  .+           +.$$$$@. ",
"  .+           +.$%%%#. ",
"  .+           +.$$$$@. ",
"  .+           +.&***#. ",
"  .+           +.&***#. ",
"  .+           +.&***#. ",
"  .+++++++++++++.=-;>,. ",
"  ..................... ",
"                        ",
"                        "};
