/* XPM */
static char * run_fit_xpm[] = {
"24 24 77 1",
" 	c None",
".	c #000000",
"+	c #CFCECA",
"@	c #E1E1E0",
"#	c #97958F",
"$	c #898781",
"%	c #8E8C85",
"&	c #838078",
"*	c #7B7973",
"=	c #67655F",
"-	c #403F3B",
";	c #686661",
">	c #7C7A72",
",	c #DDDCDB",
"'	c #9A9992",
")	c #53524E",
"!	c #171614",
"~	c #767573",
"{	c #9B9993",
"]	c #52504A",
"^	c #7A7974",
"/	c #86847D",
"(	c #9A9996",
"_	c #B7B6B3",
":	c #7D7B75",
"<	c #EFE5BA",
"[	c #8A8883",
"}	c #6B6964",
"|	c #78756C",
"1	c #5F5D56",
"2	c #54534D",
"3	c #EED680",
"4	c #EFE7C1",
"5	c #403F3A",
"6	c #EFE4B6",
"7	c #E4E3E1",
"8	c #E2E2E2",
"9	c #B3B3B1",
"0	c #484641",
"a	c #9F9D96",
"b	c #888781",
"c	c #C0AF73",
"d	c #B0AFAD",
"e	c #A8A7A1",
"f	c #908E86",
"g	c #97958E",
"h	c #807D74",
"i	c #D1940C",
"j	c #986B07",
"k	c #595854",
"l	c #605E57",
"m	c #898883",
"n	c #76746B",
"o	c #8F6406",
"p	c #43423F",
"q	c #282724",
"r	c #363430",
"s	c #6D6B63",
"t	c #E2E2E1",
"u	c #B6B5AF",
"v	c #21201E",
"w	c #0A0908",
"x	c #181816",
"y	c #E6E6E4",
"z	c #65635C",
"A	c #CBCAC6",
"B	c #161614",
"C	c #8C8B89",
"D	c #DFDEDC",
"E	c #B0AFA9",
"F	c #D5D4D1",
"G	c #93918B",
"H	c #D6D5D2",
"I	c #ABA9A3",
"J	c #5D5C55",
"K	c #494943",
"L	c #42413C",
"        ...             ",
"      ...+...           ",
"      .@#$%&.           ",
"     ..*=-;>..          ",
"     .,')!~{].          ",
" ... ..^/(_:..          ",
" .<.  .[}|12..          ",
" .34. ...5...  ...      ",
" .336.  ... .. .7. ..   ",
" .333<.    .89.0a0.b..  ",
" .3333c.   .deaaafgh0.  ",
" .iiij..    .aaklmhn.   ",
" .iio..   ..0alpqras0.. ",
" .io....  .tuakvwxyhzl. ",
" .j...A.....0amrBCDz0.. ",
" ...@#$%&.  .EhuyFGz..  ",
"  ..*=-;>...HIahhnnJ0.  ",
"  .,')!~{]...k.0n0.K..  ",
"  ..^/(_:.. .. .L....   ",
"   .[}|12..    ...      ",
"   ...5...              ",
"     ...                ",
"                        ",
"                        "};
