/* XPM */
static char * run_script_xpm[] = {
"24 24 71 1",
" 	c None",
".	c #000000",
"+	c #ECEBF0",
"@	c #ECEAF0",
"#	c #BBB6CA",
"$	c #C5C1D2",
"%	c #887FA3",
"&	c #F7F6F8",
"*	c #CAC6D6",
"=	c #404040",
"-	c #545454",
";	c #555555",
">	c #F4F3F6",
",	c #FFFFFF",
"'	c #FAFAFA",
")	c #D6D6D6",
"!	c #878787",
"~	c #242424",
"{	c #F0EFF3",
"]	c #FEFEFE",
"^	c #E6E6E6",
"/	c #F0F0F0",
"(	c #A0A0A0",
"_	c #F8F8F8",
":	c #D8D8D8",
"<	c #F5F5F5",
"[	c #979797",
"}	c #252525",
"|	c #FDFDFD",
"1	c #F7F7F7",
"2	c #C9C9C9",
"3	c #E0E0E0",
"4	c #888888",
"5	c #212121",
"6	c #46A046",
"7	c #625B81",
"8	c #FDFDFC",
"9	c #FCFCFC",
"0	c #F6F6F6",
"a	c #BFBFBF",
"b	c #E1E1E1",
"c	c #C8C8C8",
"d	c #C2C2C2",
"e	c #8E8E8E",
"f	c #FCFCFB",
"g	c #F6F6F5",
"h	c #A9A9A9",
"i	c #666666",
"j	c #5D5D5D",
"k	c #565656",
"l	c #5A5A5A",
"m	c #848484",
"n	c #C7C7C6",
"o	c #A6A6A6",
"p	c #9A9A9A",
"q	c #6C6C6C",
"r	c #AEAEAE",
"s	c #DF421E",
"t	c #F9F9F9",
"u	c #C4C4C4",
"v	c #F8F8F7",
"w	c #F5F5F4",
"x	c #C3C3C3",
"y	c #F4F4F3",
"z	c #F2F2F1",
"A	c #C3C3C2",
"B	c #F1F1F0",
"C	c #EFEFEF",
"D	c #EEEEED",
"E	c #C2C2C1",
"F	c #EDEDEB",
"                 ...... ",
"                 .+@##. ",
"                ..+$%%..",
"                .&$*%%%.",
"=========-;      .>$%%. ",
",,,,,,,,,')!~     .{%.  ",
",,]]]]]]]'^/(.     ..   ",
"]]]]]]]]]_:,<[}         ",
"]]]]]]]||12||345        ",
"67]|||8990ab)cde        ",
"]]||8999fghijklm.       ",
"77797777'1/)nopq.       ",
"'''''''''''''''r.       ",
"ss77'777'''''''d.       ",
"tttttttttttttttu.       ",
"77v77vvvvvvvvvvu.       ",
"000000000000000u.       ",
"wwwwwwwwwwwwwwwx.       ",
"7yyyyyyyyyyyyyyx.       ",
"zzzzzzzzzzzzzzzA.       ",
"sssB7B777B777BBA.       ",
"CCCCCCCCCCCCCCCd.       ",
"7777Dss7DDDDDDDE.       ",
"FFFFFFFFFFFFFFFE.       "};
