/* XPM */
static const char * save_script_xpm[] = {
"24 24 200 2",
"  	c None",
". 	c #000000",
"+ 	c #686A6D",
"@ 	c #5B5B5B",
"# 	c #F3EFE3",
"$ 	c #F0EBD7",
"% 	c #F9F3DC",
"& 	c #F7EDCA",
"* 	c #A39256",
"= 	c #85838F",
"- 	c #778A9E",
"; 	c #6D7E90",
"> 	c #333333",
", 	c #F5F1E5",
"' 	c #F6F1E0",
") 	c #F3E4AD",
"! 	c #DFB74A",
"~ 	c #D9A72E",
"{ 	c #D1940C",
"] 	c #D4B150",
"^ 	c #E2CB79",
"/ 	c #8D7E4A",
"( 	c #271614",
"_ 	c #43526B",
": 	c #314E6C",
"< 	c #2C4763",
"[ 	c #F2E8D0",
"} 	c #EED680",
"| 	c #D59D1C",
"1 	c #B8820A",
"2 	c #050505",
"3 	c #070707",
"4 	c #C9B46B",
"5 	c #2D2D2D",
"6 	c #EDEDED",
"7 	c #ECECEC",
"8 	c #EEEEEE",
"9 	c #F0F0F0",
"0 	c #F1F1F1",
"a 	c #F2F2F2",
"b 	c #DEDEDE",
"c 	c #BAB3A2",
"d 	c #FAF5E3",
"e 	c #E0B74C",
"f 	c #986B07",
"g 	c #1C1C1C",
"h 	c #DCDCDC",
"i 	c #E6E6E6",
"j 	c #C4C4C4",
"k 	c #262626",
"l 	c #C8C8C8",
"m 	c #EFEFEF",
"n 	c #F3F3F3",
"o 	c #DFDFDF",
"p 	c #F2E9CE",
"q 	c #121212",
"r 	c #D7D7D7",
"s 	c #E8E8E8",
"t 	c #E9E9E9",
"u 	c #F4F4F4",
"v 	c #E0E0E0",
"w 	c #F8F1D6",
"x 	c #EAEAEA",
"y 	c #3C3C3C",
"z 	c #444444",
"A 	c #F5F5F5",
"B 	c #E1E1E1",
"C 	c #F4E4AD",
"D 	c #3A3A3A",
"E 	c #373737",
"F 	c #FBE73B",
"G 	c #F2B64D",
"H 	c #2F2F2F",
"I 	c #F6F6F6",
"J 	c #E2E2E2",
"K 	c #F7F3DF",
"L 	c #BC9F5F",
"M 	c #FCEB3D",
"N 	c #F7B544",
"O 	c #5D502C",
"P 	c #9C9C9C",
"Q 	c #F7F7F7",
"R 	c #E3E3E3",
"S 	c #F9F6EA",
"T 	c #BEA56F",
"U 	c #D18F84",
"V 	c #D6988D",
"W 	c #E9D736",
"X 	c #EDAE42",
"Y 	c #6C5F34",
"Z 	c #121416",
"` 	c #BACFE1",
" .	c #F8F8F8",
"..	c #F9F9F9",
"+.	c #E5E5E5",
"@.	c #F9F5E4",
"#.	c #F1DD97",
"$.	c #BCA36B",
"%.	c #150C0B",
"&.	c #CF8E84",
"*.	c #C77467",
"=.	c #C57366",
"-.	c #61522E",
";.	c #72899A",
">.	c #54697C",
",.	c #FAFAFA",
"'.	c #303030",
").	c #F9F5E6",
"!.	c #C3A970",
"~.	c #FDFDFD",
"{.	c #FEFEFE",
"].	c #FCFCFC",
"^.	c #F9DF39",
"/.	c #F7B545",
"(.	c #B4B4B4",
"_.	c #84A0B5",
":.	c #4F6475",
"<.	c #FBFBFB",
"[.	c #E7E7E7",
"}.	c #F2EFE4",
"|.	c #050607",
"1.	c #D9D9D9",
"2.	c #D6D6D6",
"3.	c #F8D837",
"4.	c #EFB44D",
"5.	c #584D2B",
"6.	c #8F8F8F",
"7.	c #819AAE",
"8.	c #496072",
"9.	c #4D4D4D",
"0.	c #262A2C",
"a.	c #95AFC2",
"b.	c #F6D236",
"c.	c #EDA43E",
"d.	c #584E2B",
"e.	c #AAAAAA",
"f.	c #D3D3D3",
"g.	c #485F71",
"h.	c #CFE0ED",
"i.	c #8DA9BE",
"j.	c #D5D5D5",
"k.	c #D7AE74",
"l.	c #61562F",
"m.	c #737373",
"n.	c #C5C5C5",
"o.	c #B0B0B0",
"p.	c #7F98AC",
"q.	c #4F4115",
"r.	c #8D8D8D",
"s.	c #EBEBEB",
"t.	c #ACBDCB",
"u.	c #6F767D",
"v.	c #9AA3AC",
"w.	c #BFCBD6",
"x.	c #BDC9D4",
"y.	c #A1B6C4",
"z.	c #8BA7BC",
"A.	c #809CB0",
"B.	c #6C8394",
"C.	c #7D97AB",
"D.	c #7D97AC",
"E.	c #A4ACB8",
"F.	c #B9B9B9",
"G.	c #C7C7C7",
"H.	c #D4D4D4",
"I.	c #9C9D9D",
"J.	c #2F4656",
"K.	c #80868C",
"L.	c #183042",
"M.	c #33495A",
"N.	c #132D3C",
"O.	c #586D80",
"P.	c #97A5B0",
"Q.	c #86A4B9",
"R.	c #CDCDCD",
"S.	c #2E4353",
"T.	c #5A7082",
"U.	c #BFBFBF",
"V.	c #112835",
"W.	c #9DA9B0",
"X.	c #6B7882",
"Y.	c #829DB1",
"Z.	c #CBCBCB",
"`.	c #213648",
" +	c #5F7989",
".+	c #C2C2C2",
"++	c #B2B2B2",
"@+	c #112C3A",
"#+	c #9FA9B0",
"$+	c #59636D",
"%+	c #A1A1A1",
"&+	c #C0C0C0",
"*+	c #909090",
"=+	c #868686",
"-+	c #6E6E6E",
";+	c #7A7A7A",
">+	c #2D3949",
",+	c #3E4F5C",
"'+	c #80878F",
")+	c #1A3140",
"      . . . . . . . . . . . . . . . . . . . . . ",
"      . + . @ # $ % & * . . = - - - - - - - ; . ",
"      . > , ' ) ! ~ { ] ^ / ( _ : : : : : : < . ",
"      . [ & } | { 1 . 2 3 4 5 6 7 6 8 9 0 a b . ",
"    . c d } e { f g h i j k l 7 6 m 9 0 a n o . ",
"    . p } } { { q r s t 7 7 6 8 m 9 0 a n u v . ",
"    . w } } { { 3 s t x 7 6 8 m y z 0 n u A B . ",
". . . C } } { { . 5 D E m 8 m . F G H u A I J . ",
". K } } } } { { { L . . . . . M N O . P I Q R . ",
"  . S } } } { { T . U U V . W X Y Z ` .  ...+.. ",
"    . @.#.} { $.%.&.*.=.. M N -.. ;.>.. ..,.i . ",
"      '.).#.!.. ~.{.].. ^./.Y . (._.:.. ,.<.[.. ",
"      . . }.|.1.r 2.. 3.4.5.. 6.0 7.8.. <.].s . ",
"      . 9.0.a.r ~.. b.c.d.. e.f.0 7.g.. ].~.t . ",
"      . . h.i.r j.. k.l.. m.n.o.0 p.8.. s t 2.. ",
"      . . h.i.6 . q.. . r.f.s.s.7 7.8.. . . . . ",
"        . h.i.t.. . u.v.w.w.w.x.y.7.8..       . ",
"        . h.i.z.A.B.7.7.7.7.C.D.7.7.8..         ",
"        . h.i.z.E.F.F.G.B H.I.J.K.7.8..         ",
"        . h.i._.n.n.L.M.j.n.F.N.O.P.8..         ",
"        . h.Q.7.n.R.S.T.n.n.U.V.T.W.8..         ",
"        . X.Y.p.Z.+.`. +n..+++@+T.#+8..         ",
"        . . $+:.%+&+*+*+=+-+;+>+,+'+)+.         ",
"          . . . . . . . . . . . . . .           "};
