/* XPM */
static const char * shiftup_xpm[] = {
"10 15 4 1",
" 	c None",
".	c #00FF00",
"+	c #169616",
"@	c #2E2E2E",
"..........",
"....++....",
"    @@    ",
"   @@@@   ",
"  @@@@@@  ",
" @@@@@@@@ ",
"    @@    ",
"    @@    ",
"    @@    ",
"    @@    ",
"    @@    ",
"..........",
"....++....",
"    @@    ",
"   @@@@   "};
