/* XPM */
static const char * unused_xpm[] = {
"16 16 3 1",
" 	c None",
".	c #000000",
"+	c #3E3E3E",
".+             .",
" .+           .+",
"  .+         .+ ",
"   .+       .+  ",
"    .+     .+   ",
"     .+   .+    ",
"      .+ .+     ",
"       .++      ",
"       .++      ",
"      .+ .+     ",
"     .+   .+    ",
"    .+     .+   ",
"   .+       .+  ",
"  .+         .+ ",
" .+           .+",
".+             ."};
