/* XPM */
static const char* xyconvert16_xpm[] = {
"16 16 8 1",
" 	c None",
".	c #000000",
"+	c #B6BBDC",
"@	c #7F8BC9",
"#	c #4759B7",
"$	c #818DCB",
"%	c #7E8AC8",
"&	c #35438B",
"       ...      ",
"      .+@#.     ",
"      .$%#.     ",
"      .##&.     ",
"       ...      ",
"                ",
"     ...        ",
"    .+@#.       ",
"    .$%#.   ... ",
"    .##&.  .+@#.",
"     ...   .$%#.",
" ...       .##&.",
".+@#.       ... ",
".$%#.           ",
".##&.           ",
" ...            "};
