/* XPM */
static char * zoom_right_xpm[] = {
"24 24 136 2",
"  	c None",
". 	c #343434",
"+ 	c #2D2D2D",
"@ 	c #292929",
"# 	c #262626",
"$ 	c #2E2E2E",
"% 	c #303030",
"& 	c #737373",
"* 	c #A1A1A1",
"= 	c #B4B4B4",
"- 	c #B2B2B2",
"; 	c #9D9D9D",
"> 	c #676767",
", 	c #202020",
"' 	c #1C1C1C",
") 	c #272727",
"! 	c #616161",
"~ 	c #CACACA",
"{ 	c #CFCFCF",
"] 	c #D0D0D0",
"^ 	c #CECECE",
"/ 	c #C9C9C9",
"( 	c #C1C1C1",
"_ 	c #A7A7A7",
": 	c #4C4C4C",
"< 	c #131313",
"[ 	c #222222",
"} 	c #757575",
"| 	c #D3D3D3",
"1 	c #DBDBDB",
"2 	c #E7E7E7",
"3 	c #EFEFEF",
"4 	c #F3F3F3",
"5 	c #F1F1F1",
"6 	c #E5E5E5",
"7 	c #D2D2D2",
"8 	c #BCBCBC",
"9 	c #5E5E5E",
"0 	c #101010",
"a 	c #212121",
"b 	c #5B5B5B",
"c 	c #CCCCCC",
"d 	c #D7D7D7",
"e 	c #F5F5F5",
"f 	c #FAFAFA",
"g 	c #FBFBFB",
"h 	c #F8F8F8",
"i 	c #F0F0F0",
"j 	c #E1E1E1",
"k 	c #C2C2C2",
"l 	c #434343",
"m 	c #0F0F0F",
"n 	c #1F1F1F",
"o 	c #B9B9B9",
"p 	c #D6D6D6",
"q 	c #F9F9F9",
"r 	c #FDFDFD",
"s 	c #FFFFFF",
"t 	c #828282",
"u 	c #AEAEAE",
"v 	c #ECECEC",
"w 	c #E4E4E4",
"x 	c #ABABAB",
"y 	c #0E0E0E",
"z 	c #1B1B1B",
"A 	c #6D6D6D",
"B 	c #FEFEFE",
"C 	c #FCFCFC",
"D 	c #B1B1B1",
"E 	c #818181",
"F 	c #E6E6E6",
"G 	c #575757",
"H 	c #090909",
"I 	c #141414",
"J 	c #A8A8A8",
"K 	c #D8D8D8",
"L 	c #EEEEEE",
"M 	c #F6F6F6",
"N 	c #B0B0B0",
"O 	c #DCDCDC",
"P 	c #9B9B9B",
"Q 	c #060606",
"R 	c #111111",
"S 	c #C5C5C5",
"T 	c #DFDFDF",
"U 	c #444444",
"V 	c #454545",
"W 	c #4D4D4D",
"X 	c #707070",
"Y 	c #C6C6C6",
"Z 	c #E3E3E3",
"` 	c #F2F2F2",
" .	c #050505",
"..	c #0B0B0B",
"+.	c #A5A5A5",
"@.	c #EDEDED",
"#.	c #F4F4F4",
"$.	c #7F7F7F",
"%.	c #D1D1D1",
"&.	c #939393",
"*.	c #020202",
"=.	c #0A0A0A",
"-.	c #5F5F5F",
";.	c #D9D9D9",
">.	c #EBEBEB",
",.	c #7B7B7B",
"'.	c #D4D4D4",
").	c #000000",
"!.	c #E2E2E2",
"~.	c #646464",
"{.	c #CBCBCB",
"].	c #3B3B3B",
"^.	c #DADADA",
"/.	c #D5D5D5",
"(.	c #C8C8C8",
"_.	c #BDBDBD",
":.	c #515151",
"<.	c #C7C7C7",
"[.	c #CDCDCD",
"}.	c #B8B8B8",
"|.	c #030303",
"1.	c #313131",
"2.	c #999999",
"3.	c #BBBBBB",
"4.	c #B6B6B6",
"5.	c #909090",
"6.	c #2B2B2B",
"7.	c #010101",
"8.	c #414141",
"9.	c #7A7A7A",
"0.	c #9A9A9A",
"a.	c #777777",
"b.	c #3C3C3C",
"c.	c #686868",
"d.	c #797979",
"e.	c #3A3A3A",
"                                                ",
"              . + @ # # #                       ",
"          $ % & * = - ; > , '                   ",
"        ) ! = ~ { ] ^ / ( _ : <                 ",
"      [ } ~ | 1 2 3 4 5 6 7 8 9 0               ",
"    a b c d 6 e f g f h e i j k l m             ",
"    n o p 2 q g r s s g t u v w x y             ",
"  z A 7 j e f r B s s C D l E F 1 G H           ",
"  I J K L M q C B s s g N t l l O P Q           ",
"  R S T 3 e s s U V V V U U l l W X Q           ",
"  y Y Z v ` s s l U U U U l l l W X  .          ",
"  ..+.j 2 @.5 #.M s s 4 x $.l l %.&.*.          ",
"  =.-.;.j F >.L 3 @.@.@.J l ,.'.~ : ).          ",
"    =.= K O !.6 F @.@.Z ~.* '.{.* *.            ",
"    Q ].c 7 '.^.1 ^.1 K /.] (._.$ ).            ",
"       .:.k <.{.c [.{.{.(.k }.V ).              ",
"        |.1.2.3._.8 8 8 4.5.6.).).).            ",
"          7.|.8.9.0.0.a.b.).).  ).).).).        ",
"              ).).).).).).        , , ).).      ",
"                                  ).c.. ).).    ",
"                                    ).d.e.).).  ",
"                                      ).c.n ).  ",
"                                        ).).    ",
"                                                "};
