/* XPM */
static char * zoom_left_xpm[] = {
"24 24 137 2",
"  	c None",
". 	c #343434",
"+ 	c #2D2D2D",
"@ 	c #292929",
"# 	c #262626",
"$ 	c #2E2E2E",
"% 	c #303030",
"& 	c #737373",
"* 	c #A1A1A1",
"= 	c #B4B4B4",
"- 	c #B2B2B2",
"; 	c #9D9D9D",
"> 	c #676767",
", 	c #202020",
"' 	c #1C1C1C",
") 	c #272727",
"! 	c #616161",
"~ 	c #CACACA",
"{ 	c #CFCFCF",
"] 	c #D0D0D0",
"^ 	c #CECECE",
"/ 	c #C9C9C9",
"( 	c #C1C1C1",
"_ 	c #A7A7A7",
": 	c #4C4C4C",
"< 	c #131313",
"[ 	c #222222",
"} 	c #757575",
"| 	c #D3D3D3",
"1 	c #DBDBDB",
"2 	c #E7E7E7",
"3 	c #EFEFEF",
"4 	c #F3F3F3",
"5 	c #F1F1F1",
"6 	c #E5E5E5",
"7 	c #D2D2D2",
"8 	c #BCBCBC",
"9 	c #5E5E5E",
"0 	c #101010",
"a 	c #212121",
"b 	c #5B5B5B",
"c 	c #CCCCCC",
"d 	c #D7D7D7",
"e 	c #F5F5F5",
"f 	c #FAFAFA",
"g 	c #FBFBFB",
"h 	c #F8F8F8",
"i 	c #F0F0F0",
"j 	c #E1E1E1",
"k 	c #C2C2C2",
"l 	c #434343",
"m 	c #0F0F0F",
"n 	c #1F1F1F",
"o 	c #B9B9B9",
"p 	c #D6D6D6",
"q 	c #AEAEAE",
"r 	c #828282",
"s 	c #FDFDFD",
"t 	c #FFFFFF",
"u 	c #F2F2F2",
"v 	c #ECECEC",
"w 	c #E4E4E4",
"x 	c #ABABAB",
"y 	c #0E0E0E",
"z 	c #1B1B1B",
"A 	c #6D6D6D",
"B 	c #818181",
"C 	c #B1B1B1",
"D 	c #FEFEFE",
"E 	c #FCFCFC",
"F 	c #F9F9F9",
"G 	c #EEEEEE",
"H 	c #E6E6E6",
"I 	c #575757",
"J 	c #090909",
"K 	c #141414",
"L 	c #A8A8A8",
"M 	c #D8D8D8",
"N 	c #B0B0B0",
"O 	c #F4F4F4",
"P 	c #DCDCDC",
"Q 	c #9B9B9B",
"R 	c #060606",
"S 	c #111111",
"T 	c #707070",
"U 	c #4D4D4D",
"V 	c #444444",
"W 	c #454545",
"X 	c #EDEDED",
"Y 	c #BFBFBF",
"Z 	c #EAEAEA",
"` 	c #E0E0E0",
" .	c #BABABA",
"..	c #050505",
"+.	c #0B0B0B",
"@.	c #A5A5A5",
"#.	c #7F7F7F",
"$.	c #F6F6F6",
"%.	c #D1D1D1",
"&.	c #939393",
"*.	c #020202",
"=.	c #0A0A0A",
"-.	c #5F5F5F",
";.	c #D9D9D9",
">.	c #7B7B7B",
",.	c #E9E9E9",
"'.	c #D4D4D4",
").	c #000000",
"!.	c #646464",
"~.	c #E3E3E3",
"{.	c #DFDFDF",
"].	c #DADADA",
"^.	c #CBCBCB",
"/.	c #3B3B3B",
"(.	c #D5D5D5",
"_.	c #C8C8C8",
":.	c #BDBDBD",
"<.	c #515151",
"[.	c #C7C7C7",
"}.	c #CDCDCD",
"|.	c #B8B8B8",
"1.	c #030303",
"2.	c #313131",
"3.	c #999999",
"4.	c #BBBBBB",
"5.	c #B6B6B6",
"6.	c #909090",
"7.	c #2B2B2B",
"8.	c #010101",
"9.	c #414141",
"0.	c #7A7A7A",
"a.	c #9A9A9A",
"b.	c #777777",
"c.	c #3C3C3C",
"d.	c #686868",
"e.	c #797979",
"f.	c #3A3A3A",
"                                                ",
"              . + @ # # #                       ",
"          $ % & * = - ; > , '                   ",
"        ) ! = ~ { ] ^ / ( _ : <                 ",
"      [ } ~ | 1 2 3 4 5 6 7 8 9 0               ",
"    a b c d 6 e f g f h e i j k l m             ",
"    n o p 2 q r s t t g h u v w x y             ",
"  z A 7 j B l C D t t E F e G H 1 I J           ",
"  K L M l l r N D t t g h O G H P Q R           ",
"  S T U l l V V W W W V t t X 6 1 Y R           ",
"  y T U l l l V V V V l t t Z ` d  ...          ",
"  +.@.j l l #.x $.t t 4 3 v w 1 %.&.*.          ",
"  =.-.;.j >.l L 3 X X X ,.w 1 '.~ : ).          ",
"    =.= M P * !.H X X ~.{.].'.^.* *.            ",
"    R /.c 7 '.].1 ].1 M (.] _.:.$ ).            ",
"      ..<.k [.^.c }.^.^._.k |.W ).              ",
"        1.2.3.4.:.8 8 8 5.6.7.).).).            ",
"          8.1.9.0.a.a.b.c.).).  ).).).).        ",
"              ).).).).).).        , , ).).      ",
"                                  ).d.. ).).    ",
"                                    ).e.f.).).  ",
"                                      ).d.n ).  ",
"                                        ).).    ",
"                                                "};
