/* XPM */
static const char * zoom_prev_xpm[] = {
"24 24 144 2",
"  	c None",
". 	c #343434",
"+ 	c #2D2D2D",
"@ 	c #292929",
"# 	c #262626",
"$ 	c #2E2E2E",
"% 	c #303030",
"& 	c #737373",
"* 	c #A1A1A1",
"= 	c #B4B4B4",
"- 	c #B2B2B2",
"; 	c #9D9D9D",
"> 	c #676767",
", 	c #202020",
"' 	c #1C1C1C",
") 	c #272727",
"! 	c #616161",
"~ 	c #CACACA",
"{ 	c #CFCFCF",
"] 	c #D0D0D0",
"^ 	c #CECECE",
"/ 	c #C9C9C9",
"( 	c #C1C1C1",
"_ 	c #A7A7A7",
": 	c #4C4C4C",
"< 	c #131313",
"[ 	c #222222",
"} 	c #757575",
"| 	c #D3D3D3",
"1 	c #DBDBDB",
"2 	c #E7E7E7",
"3 	c #EFEFEF",
"4 	c #F3F3F3",
"5 	c #F1F1F1",
"6 	c #E5E5E5",
"7 	c #D2D2D2",
"8 	c #BCBCBC",
"9 	c #5E5E5E",
"0 	c #101010",
"a 	c #212121",
"b 	c #5B5B5B",
"c 	c #CCCCCC",
"d 	c #D7D7D7",
"e 	c #F5F5F5",
"f 	c #FAFAFA",
"g 	c #FBFBFB",
"h 	c #F8F8F8",
"i 	c #F0F0F0",
"j 	c #E1E1E1",
"k 	c #C2C2C2",
"l 	c #434343",
"m 	c #0F0F0F",
"n 	c #1F1F1F",
"o 	c #B9B9B9",
"p 	c #D6D6D6",
"q 	c #F9F9F9",
"r 	c #FDFDFD",
"s 	c #FCFCFC",
"t 	c #F2F2F2",
"u 	c #ECECEC",
"v 	c #E4E4E4",
"w 	c #ABABAB",
"x 	c #0E0E0E",
"y 	c #1B1B1B",
"z 	c #6D6D6D",
"A 	c #F4F4F4",
"B 	c #FEFEFE",
"C 	c #EEEEEE",
"D 	c #E6E6E6",
"E 	c #575757",
"F 	c #090909",
"G 	c #141414",
"H 	c #A8A8A8",
"I 	c #D8D8D8",
"J 	c #EDEDED",
"K 	c #000000",
"L 	c #DCDCDC",
"M 	c #9B9B9B",
"N 	c #060606",
"O 	c #111111",
"P 	c #C5C5C5",
"Q 	c #DEDEDE",
"R 	c #E8E8E8",
"S 	c #D5D5D5",
"T 	c #F7F7F7",
"U 	c #BFBFBF",
"V 	c #F7F3DF",
"W 	c #DDDDDD",
"X 	c #E9E9E9",
"Y 	c #EAEAEA",
"Z 	c #E0E0E0",
"` 	c #BABABA",
" .	c #050505",
"..	c #0A0A0A",
"+.	c #A0A0A0",
"@.	c #F9F6EA",
"#.	c #EED680",
"$.	c #515151",
"%.	c #979797",
"&.	c #E3E3E3",
"*.	c #D1D1D1",
"=.	c #939393",
"-.	c #020202",
";.	c #F9F5E4",
">.	c #F4E4AD",
",.	c #F7EECC",
"'.	c #EFE4C2",
").	c #948A6F",
"!.	c #CDCDCD",
"~.	c #D4D4D4",
"{.	c #F9F5E6",
"].	c #F1DD97",
"^.	c #D1B051",
"/.	c #585858",
"(.	c #CBCBCB",
"_.	c #F2EFE4",
":.	c #C0A048",
"<.	c #ADADAD",
"[.	c #C3A970",
"}.	c #D1940C",
"|.	c #E0B74C",
"1.	c #D9C374",
"2.	c #5A5A5A",
"3.	c #A3A3A3",
"4.	c #424242",
"5.	c #BCA36B",
"6.	c #D59D1C",
"7.	c #B1933F",
"8.	c #242424",
"9.	c #BEA56F",
"0.	c #986B07",
"a.	c #DFB74A",
"b.	c #CCB76D",
"c.	c #BC9F5F",
"d.	c #B8820A",
"e.	c #D9A72E",
"f.	c #686868",
"g.	c #D4B150",
"h.	c #A39256",
"i.	c #797979",
"j.	c #3A3A3A",
"k.	c #E2CB79",
"l.	c #C9B46B",
"m.	c #8D7E4A",
"              . + @ # # #                       ",
"          $ % & * = - ; > , '                   ",
"        ) ! = ~ { ] ^ / ( _ : <                 ",
"      [ } ~ | 1 2 3 4 5 6 7 8 9 0               ",
"    a b c d 6 e f g f h e i j k l m             ",
"    n o p 2 q f r r s g h t u v w x             ",
"  y z 7 j A e e f B r s q e C D 1 E F           ",
"  G H I J 3 K v 4 r r g h A C D L M N           ",
"  O P Q R K K S u q g f T t J 6 1 U N           ",
"  x P L K V K / W X 3 5 t i Y Z d `  .          ",
"  ..+.K @.#.K K K $.%.W &.R v 1 *.=.-.          ",
"  F % ;.#.#.>.,.'.).K 9 !.d I ~.~ : K           ",
"  K {.].#.#.#.#.#.#.^.K /.( (.~ * -.            ",
"K _.].#.#.#.#.#.#.#.#.:.K <.o ` $ K             ",
"  K [.}.}.}.}.}.}.|.#.1.K 2.3.4.K               ",
"    K 5.}.}.}.}.}.}.6.#.7.K 8.K K K             ",
"      K 9.}.K K K 0.}.a.b.K K   K K K K         ",
"        K c.K K K K d.e.#.K       , , K K       ",
"          K K     K K }.#.K       K f.. K K     ",
"            K       K g.h.K         K i.j.K K   ",
"                    K k.K             K f.n K   ",
"                  K l.m.K               K K     ",
"                    K K                         ",
"                                                "};
