/* XPM */
static char * zoom_mode_xpm[] = {
"24 24 131 2",
"  	c None",
". 	c #343434",
"+ 	c #2D2D2D",
"@ 	c #292929",
"# 	c #262626",
"$ 	c #2E2E2E",
"% 	c #303030",
"& 	c #737373",
"* 	c #A1A1A1",
"= 	c #B4B4B4",
"- 	c #B2B2B2",
"; 	c #9D9D9D",
"> 	c #676767",
", 	c #202020",
"' 	c #1C1C1C",
") 	c #272727",
"! 	c #616161",
"~ 	c #CACACA",
"{ 	c #CFCFCF",
"] 	c #D0D0D0",
"^ 	c #CECECE",
"/ 	c #C9C9C9",
"( 	c #C1C1C1",
"_ 	c #A7A7A7",
": 	c #4C4C4C",
"< 	c #131313",
"[ 	c #000000",
"} 	c #222222",
"| 	c #757575",
"1 	c #D3D3D3",
"2 	c #DBDBDB",
"3 	c #E7E7E7",
"4 	c #EFEFEF",
"5 	c #F3F3F3",
"6 	c #F1F1F1",
"7 	c #E5E5E5",
"8 	c #D2D2D2",
"9 	c #BCBCBC",
"0 	c #5E5E5E",
"a 	c #101010",
"b 	c #212121",
"c 	c #383838",
"d 	c #CCCCCC",
"e 	c #858585",
"f 	c #979797",
"g 	c #FAFAFA",
"h 	c #9B9B9B",
"i 	c #999999",
"j 	c #F5F5F5",
"k 	c #949494",
"l 	c #E1E1E1",
"m 	c #787878",
"n 	c #434343",
"o 	c #060606",
"p 	c #1F1F1F",
"q 	c #B9B9B9",
"r 	c #D6D6D6",
"s 	c #F9F9F9",
"t 	c #FBFBFB",
"u 	c #FDFDFD",
"v 	c #FCFCFC",
"w 	c #F8F8F8",
"x 	c #F2F2F2",
"y 	c #ECECEC",
"z 	c #E4E4E4",
"A 	c #ABABAB",
"B 	c #0E0E0E",
"C 	c #111111",
"D 	c #6D6D6D",
"E 	c #FEFEFE",
"F 	c #EEEEEE",
"G 	c #E6E6E6",
"H 	c #575757",
"I 	c #090909",
"J 	c #141414",
"K 	c #A8A8A8",
"L 	c #D8D8D8",
"M 	c #F6F6F6",
"N 	c #F4F4F4",
"O 	c #DCDCDC",
"P 	c #C5C5C5",
"Q 	c #DFDFDF",
"R 	c #F7F7F7",
"S 	c #EDEDED",
"T 	c #BFBFBF",
"U 	c #C6C6C6",
"V 	c #E3E3E3",
"W 	c #F0F0F0",
"X 	c #EAEAEA",
"Y 	c #E0E0E0",
"Z 	c #D7D7D7",
"` 	c #BABABA",
" .	c #050505",
"..	c #A5A5A5",
"+.	c #D1D1D1",
"@.	c #939393",
"#.	c #020202",
"$.	c #0A0A0A",
"%.	c #5F5F5F",
"&.	c #D9D9D9",
"*.	c #EBEBEB",
"=.	c #E9E9E9",
"-.	c #D4D4D4",
";.	c #030303",
">.	c #E2E2E2",
",.	c #DADADA",
"'.	c #CBCBCB",
").	c #3B3B3B",
"!.	c #D5D5D5",
"~.	c #C8C8C8",
"{.	c #BDBDBD",
"].	c #515151",
"^.	c #C2C2C2",
"/.	c #C7C7C7",
"(.	c #CDCDCD",
"_.	c #B8B8B8",
":.	c #454545",
"<.	c #313131",
"[.	c #BBBBBB",
"}.	c #B6B6B6",
"|.	c #909090",
"1.	c #2B2B2B",
"2.	c #010101",
"3.	c #414141",
"4.	c #7A7A7A",
"5.	c #9A9A9A",
"6.	c #777777",
"7.	c #3C3C3C",
"8.	c #686868",
"9.	c #797979",
"0.	c #3A3A3A",
"              . + @ # # #                       ",
"          $ % & * = - ; > , '                   ",
"        ) ! = ~ { ] ^ / ( _ : <                 ",
"[ [   } | ~ 1 2 3 4 5 6 7 8 9 0 a     [ [       ",
"[ [ b c d e 7 f g h g i j k l m n o   [ [       ",
"    p q r 3 s t u u v t w x y z A B             ",
"  C D 8 l j g u E E u v s j F G 2 H I [         ",
"  J K L F M s v E E u t w N F G O h o           ",
"  a P Q 4 j w t u u v g R x S 7 2 T o [         ",
"  B U V y x j w g g g R N W X Y Z `  .          ",
"  I ..l 3 S 6 N M M j 5 4 y z 2 +.@.#.[         ",
"  $.%.&.l G *.F 4 4 F S =.z 2 -.~ : [           ",
"  ;.$.= L O >.7 G G 3 V Q ,.-.'.* #.  [         ",
"    o ).d 8 -.,.2 ,.2 L !.] ~.{.$ [             ",
"  [    .].^./.'.d (.'.'.~.^._.:.[     [         ",
"        ;.<.i [.{.9 9 9 }.|.1.[ [ [             ",
"  [       2.;.3.4.5.5.6.7.[ [   [ [ [ [         ",
"              [ [ [ [ [ [         , , [ [       ",
"  [                               [ 8.[ [ [     ",
"                                    [ 9.0.[ [   ",
"[ [   [   [   [   [   [   [   [   [   [ [ p [   ",
"[ [                                   [ [ [     ",
"                                                ",
"                                                "};
